<?xml version="1.0" encoding="UTF-8"?>
<svg width="84px" height="84px" viewBox="0 0 84 84" version="1.1" xmlns="http://www.w3.org/2000/svg" xmlns:xlink="http://www.w3.org/1999/xlink">
    <title>js</title>
    <g id="js" stroke="none" stroke-width="1" fill="none" fill-rule="evenodd">
        <g id="Unofficial_JavaScript_logo_2" transform="translate(17.000000, 17.000000)" fill-rule="nonzero">
            <rect id="Rectangle" fill="#FCDE00" x="0" y="0" width="50" height="50" rx="4"></rect>
            <path d="M33.2336629,38.7027118 C34.2349078,40.3387098 35.537552,41.5412316 37.8414411,41.5412316 C39.7768658,41.5412316 41.0132337,40.5732134 41.0132337,39.2356745 C41.0132337,37.6328386 39.7429386,37.0651346 37.6126302,36.1326473 L36.4449056,35.6312676 C33.0742842,34.1942423 30.8350934,32.3940128 30.8350934,28.5882645 C30.8350934,25.0825544 33.5042909,22.4137931 37.6757504,22.4137931 C40.6455582,22.4137931 42.7806007,23.4481355 44.3191567,26.1563755 L40.6818523,28.4935155 C39.8810142,27.0564902 39.0170558,26.4903654 37.6757504,26.4903654 C36.307619,26.4903654 35.4405046,27.3588972 35.4405046,28.4935155 C35.4405046,29.8957996 36.308408,30.4635035 38.312476,31.3320353 L39.4802006,31.8326254 C43.4488863,33.5357373 45.6896552,35.2720113 45.6896552,39.1756668 C45.6896552,43.3840981 42.3860991,45.6896552 37.9495345,45.6896552 C33.6115954,45.6896552 30.8090563,43.6209704 29.4377688,40.9095721 L33.2336629,38.7027118 Z M16.7332405,39.1077634 C17.4670134,40.4105611 18.1345101,41.5120173 19.7393424,41.5120173 C21.2739535,41.5120173 22.2420603,40.9111512 22.2420603,38.5748008 L22.2420603,22.6806692 L26.9129588,22.6806692 L26.9129588,38.6379667 C26.9129588,43.4780574 24.0772816,45.6809699 19.9381712,45.6809699 C16.1982964,45.6809699 14.0324828,43.744144 12.9310345,41.4113466 L16.7332405,39.1077634 Z" id="Shape" fill="#000000"></path>
        </g>
    </g>
</svg>