<?xml version="1.0" encoding="UTF-8"?>
<svg width="84px" height="84px" viewBox="0 0 84 84" version="1.1" xmlns="http://www.w3.org/2000/svg" xmlns:xlink="http://www.w3.org/1999/xlink">
    <title>python</title>
    <defs>
        <linearGradient x1="12.9593594%" y1="11.6996305%" x2="79.6388325%" y2="78.4532626%" id="linearGradient-1">
            <stop stop-color="#0580BD" offset="0%"></stop>
            <stop stop-color="#1F6B98" offset="100%"></stop>
        </linearGradient>
        <linearGradient x1="19.127525%" y1="20.315846%" x2="90.7415328%" y2="88.7730019%" id="linearGradient-2">
            <stop stop-color="#FFDF20" offset="0%"></stop>
            <stop stop-color="#FFC000" offset="100%"></stop>
        </linearGradient>
    </defs>
    <g id="python" stroke="none" stroke-width="1" fill="none" fill-rule="evenodd">
        <g id="Python-logo-notext" transform="translate(17.000000, 17.000000)" fill-rule="nonzero">
            <path d="M25.1021146,0 C12.2646095,0 13.066266,5.55472887 13.066266,5.55472887 L13.0805774,11.3093709 L25.3310962,11.3093709 L25.3310962,13.0371914 L8.21471708,13.0371914 C8.21471708,13.0371914 0,12.1076406 0,25.0319787 C0,37.956314 7.16998826,37.4979898 7.16998826,37.4979898 L11.449083,37.4979898 L11.449083,31.5005961 C11.449083,31.5005961 11.2184289,24.3465623 18.5045805,24.3465623 C25.7907311,24.3465623 30.6549199,24.3465623 30.6549199,24.3465623 C30.6549199,24.3465623 37.4814356,24.4566676 37.4814356,17.7637088 C37.4814356,11.0707518 37.4814356,6.69708957 37.4814356,6.69708957 C37.4814356,6.69708865 38.517889,0 25.1021146,0 Z M18.3471556,3.86974685 C19.5659924,3.86974685 20.5511041,4.85266643 20.5511041,6.06879119 C20.5511041,7.28491594 19.5659924,8.26783552 18.3471556,8.26783552 C17.1283187,8.26783552 16.1432071,7.28491594 16.1432071,6.06879119 C16.1432071,4.85266643 17.1283187,3.86974685 18.3471556,3.86974685 Z" id="path8615" fill="url(#linearGradient-1)"></path>
            <path d="M24.897886,50 C37.7353945,50 36.9337343,44.4452716 36.9337343,44.4452716 L36.9194229,38.6906301 L24.6689044,38.6906301 L24.6689044,36.9628097 L41.7852831,36.9628097 C41.7852831,36.9628097 50,37.8923576 50,24.9680189 C50,12.043686 42.8300119,12.5020102 42.8300119,12.5020102 L38.5509172,12.5020102 L38.5509172,18.499402 C38.5509172,18.499402 38.781575,25.6534352 31.49542,25.6534352 C24.2092686,25.6534352 19.34508,25.6534352 19.34508,25.6534352 C19.34508,25.6534352 12.5185644,25.5433299 12.5185644,32.2362927 C12.5185644,38.9292464 12.5185644,43.302911 12.5185644,43.302911 C12.5185644,43.302911 11.482111,50 24.897886,50 Z M31.6528449,46.1302535 C30.4340076,46.1302535 29.4488964,45.1473344 29.4488964,43.9312093 C29.4488964,42.7150842 30.4340076,41.7321652 31.6528449,41.7321652 C32.8716822,41.7321652 33.8567933,42.7150842 33.8567933,43.9312093 C33.8567933,45.1473344 32.8716822,46.1302535 31.6528449,46.1302535 Z" id="path8620" fill="url(#linearGradient-2)"></path>
        </g>
    </g>
</svg>