<?xml version="1.0" encoding="UTF-8"?>
<svg width="172px" height="50px" viewBox="0 0 172 50" version="1.1" xmlns="http://www.w3.org/2000/svg" xmlns:xlink="http://www.w3.org/1999/xlink">
    <title>logo</title>
    <g id="logo" stroke="none" stroke-width="1" fill="none" fill-rule="evenodd">
        <text id="zeplo" font-family="OpenSans-SemiBold, Open Sans" font-size="50" font-weight="500" fill="#FFFFFF">
            <tspan x="43.3276367" y="41">zeplo</tspan>
        </text>
        <path d="M20.0901736,4.37215596 C20.0901736,4.08388072 19.987228,3.80529238 19.783733,3.53636614 C19.6400859,3.32802954 19.4270177,3.17298951 19.1397173,3.07124604 C18.8548256,2.96707774 18.5675375,2.97677084 18.2826641,3.10273777 C17.9762235,3.20448124 17.7511796,3.39101301 17.6075141,3.65991444 L1.24419642,28.4346918 C1.12209821,28.6430284 1.04070145,28.8804319 1,29.1493024 C1,29.396399 1.05027465,29.6241156 1.15322032,29.8300522 C1.27531853,30.0577688 1.4476914,30.2443005 1.67273528,30.3896475 C1.89777916,30.4913909 2.13239625,30.5446875 2.3789584,30.5446875 L11.9074239,30.5446875 L11.9074239,45.7386109 C11.9074239,46.0268861 12.0007902,46.3054745 12.1851326,46.5744007 C12.3479323,46.8021173 12.5729701,46.9571574 12.8578924,47.0395208 C13.1451805,47.1436891 13.4300723,47.1436891 13.7173359,47.0395208 C14.0022276,46.9159725 14.2272715,46.7391277 14.3900957,46.5138359 L30.7534133,21.7074303 C30.8779018,21.4797137 30.9593047,21.2301985 31,20.9613157 C31,20.7360239 30.9281764,20.5083073 30.7845355,20.2805659 C30.7031387,20.0528493 30.5499184,19.8760106 30.3248745,19.7524623 C30.0998306,19.628914 29.8556403,19.5659305 29.5899072,19.5659305 L20.0902472,19.5659305 L20.0902472,4.37200712 L20.0901736,4.37215596 Z M16.9176987,20.4438415 C16.9176987,20.8190691 17.0392695,21.1428022 17.2824111,21.4150283 C17.5684583,21.7093226 17.8926451,21.8564666 18.2597619,21.8564666 L26.5882353,21.8564666 L14.2023161,40.9411765 L14.2023161,28.7914526 C14.2023161,28.4162251 14.0688274,28.0924919 13.8042361,27.8202658 C13.5205749,27.5259715 13.2035339,27.3788275 12.8578852,27.3788275 L4.52941176,27.3788275 L16.9177719,8.29411765 L16.9177719,20.4438415 L16.9176987,20.4438415 Z M17.2824843,21.4150283 C17.0393427,21.1428085 16.9177719,20.8190816 16.9177719,20.4438415 L16.9177719,8.29411765 L4.52941176,27.3788275 L12.8578852,27.3788275 C13.2035278,27.3788275 13.5205383,27.5259715 13.8042361,27.8202658 C14.0688274,28.0924857 14.2023161,28.4162125 14.2023161,28.7914526 L14.2023161,40.9411765 L26.5882353,21.8564666 L18.2597619,21.8564666 C17.8926695,21.8564666 17.5684888,21.7093226 17.2824111,21.4150283 L17.2824843,21.4150283 Z" id="Fill-1" fill="#FFFFFF"></path>
    </g>
</svg>