<?xml version="1.0" encoding="UTF-8"?>
<svg width="844px" height="148px" viewBox="0 0 844 148" version="1.1" xmlns="http://www.w3.org/2000/svg" xmlns:xlink="http://www.w3.org/1999/xlink">
    <title>how</title>
    <defs>
        <rect id="path-1" x="547" y="21" width="102" height="70" rx="3"></rect>
        <filter x="-6.9%" y="-7.1%" width="113.7%" height="120.0%" filterUnits="objectBoundingBox" id="filter-2">
            <feOffset dx="0" dy="2" in="SourceAlpha" result="shadowOffsetOuter1"></feOffset>
            <feGaussianBlur stdDeviation="2" in="shadowOffsetOuter1" result="shadowBlurOuter1"></feGaussianBlur>
            <feComposite in="shadowBlurOuter1" in2="SourceAlpha" operator="out" result="shadowBlurOuter1"></feComposite>
            <feColorMatrix values="0 0 0 0 0   0 0 0 0 0   0 0 0 0 0  0 0 0 0.0391990822 0" type="matrix" in="shadowBlurOuter1"></feColorMatrix>
        </filter>
        <rect id="path-3" x="193" y="21" width="102" height="70" rx="3"></rect>
        <filter x="-6.9%" y="-7.1%" width="113.7%" height="120.0%" filterUnits="objectBoundingBox" id="filter-4">
            <feOffset dx="0" dy="2" in="SourceAlpha" result="shadowOffsetOuter1"></feOffset>
            <feGaussianBlur stdDeviation="2" in="shadowOffsetOuter1" result="shadowBlurOuter1"></feGaussianBlur>
            <feComposite in="shadowBlurOuter1" in2="SourceAlpha" operator="out" result="shadowBlurOuter1"></feComposite>
            <feColorMatrix values="0 0 0 0 0   0 0 0 0 0   0 0 0 0 0  0 0 0 0.0391990822 0" type="matrix" in="shadowBlurOuter1"></feColorMatrix>
        </filter>
    </defs>
    <g id="how" stroke="none" stroke-width="1" fill="none" fill-rule="evenodd">
        <rect id="Rectangle" stroke="#00B682" stroke-width="3" fill="#00B682" x="371.5" y="15.5" width="99" height="82" rx="9"></rect>
        <path d="M403.169922,130.228516 L399.904297,126.58252 C400.999023,126.081543 401.829346,125.291423 402.395264,124.212158 C402.961182,123.132894 403.244141,121.79541 403.244141,120.199707 C403.244141,117.948405 402.692139,116.222819 401.588135,115.022949 C400.484131,113.823079 398.889974,113.223145 396.805664,113.223145 C394.721354,113.223145 393.121012,113.818441 392.004639,115.009033 C390.888265,116.199626 390.330078,117.923665 390.330078,120.181152 C390.330078,122.438639 390.886719,124.17041 392,125.376465 C393.113281,126.58252 394.708984,127.185547 396.787109,127.185547 L396.787109,127.185547 L397.000488,127.185547 L399.486816,130.228516 L403.169922,130.228516 Z M396.787109,124.773438 C395.642904,124.773438 394.783203,124.389974 394.208008,123.623047 C393.632812,122.85612 393.345215,121.715007 393.345215,120.199707 C393.345215,118.684408 393.635905,117.541748 394.217285,116.771729 C394.798665,116.001709 395.661458,115.616699 396.805664,115.616699 C399.087891,115.616699 400.229004,117.144368 400.229004,120.199707 C400.229004,123.248861 399.081706,124.773438 396.787109,124.773438 Z M409.459961,127.185547 C410.171224,127.185547 410.805176,127.054118 411.361816,126.79126 C411.918457,126.528402 412.348307,126.155762 412.651367,125.67334 L412.651367,125.67334 L412.799805,125.67334 L413.180176,127 L415.351074,127 L415.351074,116.62793 L412.521484,116.62793 L412.521484,121.507812 C412.521484,122.732422 412.345215,123.609131 411.992676,124.137939 C411.640137,124.666748 411.068034,124.931152 410.276367,124.931152 C409.694987,124.931152 409.271322,124.744059 409.005371,124.369873 C408.739421,123.995687 408.606445,123.434408 408.606445,122.686035 L408.606445,122.686035 L408.606445,116.62793 L405.776855,116.62793 L405.776855,123.391113 C405.776855,124.615723 406.0861,125.554281 406.70459,126.206787 C407.323079,126.859294 408.241536,127.185547 409.459961,127.185547 Z M423.01416,127.185547 C423.824382,127.185547 424.510905,127.125244 425.07373,127.004639 C425.636556,126.884033 426.165365,126.700033 426.660156,126.452637 L426.660156,126.452637 L426.660156,124.263184 C426.054036,124.547689 425.472656,124.754883 424.916016,124.884766 C424.359375,125.014648 423.768717,125.07959 423.144043,125.07959 C422.340007,125.07959 421.715332,124.853841 421.27002,124.402344 C420.824707,123.950846 420.586589,123.323079 420.555664,122.519043 L420.555664,122.519043 L427.244629,122.519043 L427.244629,121.145996 C427.244629,119.673991 426.836426,118.520508 426.02002,117.685547 C425.203613,116.850586 424.0625,116.433105 422.59668,116.433105 C421.062826,116.433105 419.86141,116.907796 418.992432,117.857178 C418.123454,118.806559 417.688965,120.150228 417.688965,121.888184 C417.688965,123.57666 418.159017,124.881673 419.099121,125.803223 C420.039225,126.724772 421.344238,127.185547 423.01416,127.185547 Z M424.591309,120.635742 L420.620605,120.635742 C420.670085,119.936849 420.864909,119.397217 421.205078,119.016846 C421.545247,118.636475 422.015299,118.446289 422.615234,118.446289 C423.215169,118.446289 423.691406,118.636475 424.043945,119.016846 C424.396484,119.397217 424.578939,119.936849 424.591309,120.635742 L424.591309,120.635742 Z M433.172852,127.185547 C433.884115,127.185547 434.518066,127.054118 435.074707,126.79126 C435.631348,126.528402 436.061198,126.155762 436.364258,125.67334 L436.364258,125.67334 L436.512695,125.67334 L436.893066,127 L439.063965,127 L439.063965,116.62793 L436.234375,116.62793 L436.234375,121.507812 C436.234375,122.732422 436.058105,123.609131 435.705566,124.137939 C435.353027,124.666748 434.780924,124.931152 433.989258,124.931152 C433.407878,124.931152 432.984212,124.744059 432.718262,124.369873 C432.452311,123.995687 432.319336,123.434408 432.319336,122.686035 L432.319336,122.686035 L432.319336,116.62793 L429.489746,116.62793 L429.489746,123.391113 C429.489746,124.615723 429.798991,125.554281 430.41748,126.206787 C431.03597,126.859294 431.954427,127.185547 433.172852,127.185547 Z M446.727051,127.185547 C447.537272,127.185547 448.223796,127.125244 448.786621,127.004639 C449.349447,126.884033 449.878255,126.700033 450.373047,126.452637 L450.373047,126.452637 L450.373047,124.263184 C449.766927,124.547689 449.185547,124.754883 448.628906,124.884766 C448.072266,125.014648 447.481608,125.07959 446.856934,125.07959 C446.052897,125.07959 445.428223,124.853841 444.98291,124.402344 C444.537598,123.950846 444.299479,123.323079 444.268555,122.519043 L444.268555,122.519043 L450.95752,122.519043 L450.95752,121.145996 C450.95752,119.673991 450.549316,118.520508 449.73291,117.685547 C448.916504,116.850586 447.775391,116.433105 446.30957,116.433105 C444.775716,116.433105 443.5743,116.907796 442.705322,117.857178 C441.836344,118.806559 441.401855,120.150228 441.401855,121.888184 C441.401855,123.57666 441.871908,124.881673 442.812012,125.803223 C443.752116,126.724772 445.057129,127.185547 446.727051,127.185547 Z M448.304199,120.635742 L444.333496,120.635742 C444.382975,119.936849 444.577799,119.397217 444.917969,119.016846 C445.258138,118.636475 445.72819,118.446289 446.328125,118.446289 C446.92806,118.446289 447.404297,118.636475 447.756836,119.016846 C448.109375,119.397217 448.291829,119.936849 448.304199,120.635742 L448.304199,120.635742 Z" id="Queue" fill="#00B682" fill-rule="nonzero"></path>
        <path d="M423.453835,28.3062925 C423.453835,28.0318544 423.35432,27.7666383 423.157609,27.5106206 C423.01875,27.3122841 422.812784,27.164686 422.53506,27.0678262 C422.259665,26.968658 421.981953,26.9778858 421.706575,27.0978064 C421.410349,27.1946661 421.192807,27.3722444 421.05393,27.6282386 L405.236057,51.2138266 C405.118028,51.4121631 405.039345,51.6381712 405,51.8941359 C405,52.1293718 405.048599,52.346158 405.148113,52.5422097 C405.266141,52.7589959 405.432768,52.9365741 405.650311,53.0749444 C405.867853,53.1718042 406.09465,53.2225425 406.332993,53.2225425 L415.543843,53.2225425 L415.543843,67.6871576 C415.543843,67.9615956 415.634097,68.2268117 415.812295,68.4828295 C415.969668,68.6996157 416.187204,68.8472138 416.462629,68.9256238 C416.740341,69.0247921 417.015737,69.0247921 417.293425,68.9256238 C417.56882,68.8080059 417.786362,68.6396495 417.943759,68.4251718 L433.761633,44.8094737 C433.881972,44.5926875 433.960661,44.355149 434,44.0991725 C434,43.8846947 433.930571,43.6679085 433.791718,43.4510987 C433.713034,43.2343125 433.564921,43.0659621 433.347379,42.9483441 C433.129836,42.8307261 432.893786,42.7707659 432.63691,42.7707659 L423.453906,42.7707659 L423.453906,28.3061508 L423.453835,28.3062925 Z" id="Path" fill="#FFFFFF"></path>
        <path d="M420.793649,43.5367648 C420.793649,43.893062 420.909385,44.2004626 421.140855,44.4589548 C421.413172,44.7384018 421.721798,44.8781224 422.071293,44.8781224 L430,44.8781224 L418.208605,63 L418.208605,51.4632352 C418.208605,51.106938 418.081524,50.7995374 417.829633,50.5410452 C417.559587,50.2615982 417.257764,50.1218776 416.928707,50.1218776 L409,50.1218776 L420.793719,32 L420.793719,43.5367648 L420.793649,43.5367648 Z" id="Path" fill="#FFFFFF"></path>
        <path d="M421.140925,44.4589548 C420.909454,44.2004686 420.793719,43.8930739 420.793719,43.5367648 L420.793719,32 L409,50.1218776 L416.928707,50.1218776 C417.257758,50.1218776 417.559552,50.2615982 417.829633,50.5410452 C418.081524,50.7995314 418.208605,51.1069261 418.208605,51.4632352 L418.208605,63 L430,44.8781224 L422.071293,44.8781224 C421.721821,44.8781224 421.413201,44.7384018 421.140855,44.4589548 L421.140925,44.4589548 Z" id="Path" fill="#FFFFFF"></path>
        <path d="M410.217285,86 L410.217285,84.375 L405.65332,84.375 L410.09668,77.9892578 L410.09668,76.7197266 L403.431641,76.7197266 L403.431641,78.3447266 L407.760742,78.3447266 L403.311035,84.7241211 L403.311035,86 L410.217285,86 Z M414.755859,86.1269531 C415.310221,86.1269531 415.779948,86.0856934 416.165039,86.0031738 C416.55013,85.9206543 416.911947,85.7947591 417.250488,85.6254883 L417.250488,85.6254883 L417.250488,84.1274414 C416.835775,84.3221029 416.437988,84.4638672 416.057129,84.5527344 C415.67627,84.6416016 415.272135,84.6860352 414.844727,84.6860352 C414.294596,84.6860352 413.867188,84.5315755 413.5625,84.2226562 C413.257812,83.913737 413.094889,83.4842122 413.07373,82.934082 L413.07373,82.934082 L417.650391,82.934082 L417.650391,81.9946289 C417.650391,80.9874674 417.371094,80.1982422 416.8125,79.6269531 C416.253906,79.0556641 415.473145,78.7700195 414.470215,78.7700195 C413.420736,78.7700195 412.598714,79.0948079 412.00415,79.7443848 C411.409587,80.3939616 411.112305,81.3133138 411.112305,82.5024414 C411.112305,83.6577148 411.433919,84.5506185 412.077148,85.1811523 C412.720378,85.8116862 413.613281,86.1269531 414.755859,86.1269531 Z M415.834961,81.6455078 L413.118164,81.6455078 C413.152018,81.1673177 413.285319,80.7980957 413.518066,80.5378418 C413.750814,80.2775879 414.072428,80.1474609 414.48291,80.1474609 C414.893392,80.1474609 415.219238,80.2775879 415.460449,80.5378418 C415.70166,80.7980957 415.826497,81.1673177 415.834961,81.6455078 L415.834961,81.6455078 Z M421.160645,89.1230469 L421.160645,86.2475586 C421.160645,86.1544596 421.12679,85.8116862 421.059082,85.2192383 L421.059082,85.2192383 L421.160645,85.2192383 C421.634603,85.8243815 422.288411,86.1269531 423.12207,86.1269531 C423.676432,86.1269531 424.158854,85.980957 424.569336,85.6889648 C424.979818,85.3969727 425.296143,84.9716797 425.518311,84.4130859 C425.740479,83.8544922 425.851562,83.1964518 425.851562,82.4389648 C425.851562,81.2879232 425.614583,80.3886719 425.140625,79.7412109 C424.666667,79.09375 424.010742,78.7700195 423.172852,78.7700195 C422.28418,78.7700195 421.613444,79.1212565 421.160645,79.8237305 L421.160645,79.8237305 L421.071777,79.8237305 L420.798828,78.9033203 L419.224609,78.9033203 L419.224609,89.1230469 L421.160645,89.1230469 Z M422.576172,84.559082 C422.085286,84.559082 421.726644,84.394043 421.500244,84.0639648 C421.273844,83.7338867 421.160645,83.1879883 421.160645,82.4262695 L421.160645,82.4262695 L421.160645,82.2167969 C421.169108,81.5397135 421.283366,81.0541178 421.503418,80.7600098 C421.72347,80.4659017 422.072591,80.3188477 422.550781,80.3188477 C423.007812,80.3188477 423.34318,80.4934082 423.556885,80.8425293 C423.770589,81.1916504 423.877441,81.715332 423.877441,82.4135742 C423.877441,83.8439128 423.443685,84.559082 422.576172,84.559082 Z M429.387207,86 L429.387207,76.1230469 L427.451172,76.1230469 L427.451172,86 L429.387207,86 Z M434.408203,86.1269531 C435.495768,86.1269531 436.344238,85.8011068 436.953613,85.1494141 C437.562988,84.4977214 437.867676,83.5942383 437.867676,82.4389648 C437.867676,81.6941732 437.728027,81.0445964 437.44873,80.4902344 C437.169434,79.9358724 436.769531,79.5105794 436.249023,79.2143555 C435.728516,78.9181315 435.127604,78.7700195 434.446289,78.7700195 C433.35026,78.7700195 432.499674,79.0916341 431.894531,79.7348633 C431.289388,80.3780924 430.986816,81.2794596 430.986816,82.4389648 C430.986816,83.1837565 431.126465,83.8354492 431.405762,84.394043 C431.685059,84.9526367 432.084961,85.3811035 432.605469,85.6794434 C433.125977,85.9777832 433.726888,86.1269531 434.408203,86.1269531 Z M434.433594,84.5717773 C433.913086,84.5717773 433.537516,84.3919271 433.306885,84.0322266 C433.076253,83.672526 432.960938,83.1414388 432.960938,82.4389648 C432.960938,81.7322591 433.075195,81.2043457 433.303711,80.8552246 C433.532227,80.5061035 433.904622,80.331543 434.420898,80.331543 C434.941406,80.331543 435.315918,80.5071615 435.544434,80.8583984 C435.772949,81.2096354 435.887207,81.7364909 435.887207,82.4389648 C435.887207,83.1456706 435.774007,83.6778158 435.547607,84.0354004 C435.321208,84.392985 434.94987,84.5717773 434.433594,84.5717773 Z" id="Zeplo" fill="#FFFFFF" fill-rule="nonzero"></path>
        <path d="M31.7006836,127.185547 C33.2716471,127.185547 34.4978027,126.833008 35.3791504,126.12793 C36.260498,125.422852 36.7011719,124.458008 36.7011719,123.233398 C36.7011719,122.348958 36.4661458,121.602132 35.9960938,120.99292 C35.5260417,120.383708 34.6570638,119.776042 33.3891602,119.169922 C32.4305013,118.71224 31.8228353,118.395264 31.5661621,118.218994 C31.3094889,118.042725 31.1223958,117.86027 31.0048828,117.671631 C30.8873698,117.482992 30.8286133,117.261882 30.8286133,117.008301 C30.8286133,116.600098 30.9739583,116.269206 31.2646484,116.015625 C31.5553385,115.762044 31.972819,115.635254 32.5170898,115.635254 C32.9747721,115.635254 33.4401855,115.69401 33.9133301,115.811523 C34.3864746,115.929036 34.9848633,116.13623 35.7084961,116.433105 L35.7084961,116.433105 L36.6362305,114.197266 C35.9373372,113.894206 35.2678223,113.65918 34.6276855,113.492188 C33.9875488,113.325195 33.3149414,113.241699 32.6098633,113.241699 C31.1749674,113.241699 30.0508626,113.584961 29.2375488,114.271484 C28.424235,114.958008 28.0175781,115.901204 28.0175781,117.101074 C28.0175781,117.738118 28.141276,118.294759 28.3886719,118.770996 C28.6360677,119.247233 28.9669596,119.664714 29.3813477,120.023438 C29.7957357,120.382161 30.4173177,120.756348 31.2460938,121.145996 C32.1305339,121.566569 32.7165527,121.872721 33.0041504,122.064453 C33.291748,122.256185 33.5097656,122.455648 33.6582031,122.662842 C33.8066406,122.870036 33.8808594,123.106608 33.8808594,123.372559 C33.8808594,123.848796 33.712321,124.20752 33.3752441,124.44873 C33.0381673,124.689941 32.5541992,124.810547 31.9233398,124.810547 C31.3976237,124.810547 30.8177897,124.727051 30.1838379,124.560059 C29.5498861,124.393066 28.7752279,124.105469 27.8598633,123.697266 L27.8598633,123.697266 L27.8598633,126.369141 C28.9731445,126.913411 30.253418,127.185547 31.7006836,127.185547 Z M43.6313477,127.185547 C44.441569,127.185547 45.1280924,127.125244 45.690918,127.004639 C46.2537435,126.884033 46.7825521,126.700033 47.2773438,126.452637 L47.2773438,126.452637 L47.2773438,124.263184 C46.671224,124.547689 46.0898438,124.754883 45.5332031,124.884766 C44.9765625,125.014648 44.3859049,125.07959 43.7612305,125.07959 C42.957194,125.07959 42.3325195,124.853841 41.887207,124.402344 C41.4418945,123.950846 41.203776,123.323079 41.1728516,122.519043 L41.1728516,122.519043 L47.8618164,122.519043 L47.8618164,121.145996 C47.8618164,119.673991 47.4536133,118.520508 46.637207,117.685547 C45.8208008,116.850586 44.6796875,116.433105 43.2138672,116.433105 C41.680013,116.433105 40.478597,116.907796 39.6096191,117.857178 C38.7406413,118.806559 38.3061523,120.150228 38.3061523,121.888184 C38.3061523,123.57666 38.7762044,124.881673 39.7163086,125.803223 C40.6564128,126.724772 41.9614258,127.185547 43.6313477,127.185547 Z M45.2084961,120.635742 L41.237793,120.635742 C41.2872721,119.936849 41.4820964,119.397217 41.8222656,119.016846 C42.1624349,118.636475 42.632487,118.446289 43.2324219,118.446289 C43.8323568,118.446289 44.3085938,118.636475 44.6611328,119.016846 C45.0136719,119.397217 45.1961263,119.936849 45.2084961,120.635742 L45.2084961,120.635742 Z M52.9921875,127 L52.9921875,121.721191 C52.9921875,120.88623 53.244222,120.236816 53.748291,119.772949 C54.25236,119.309082 54.9558919,119.077148 55.8588867,119.077148 C56.1866862,119.077148 56.4650065,119.108073 56.6938477,119.169922 L56.6938477,119.169922 L56.9072266,116.516602 C56.6536458,116.460938 56.3351237,116.433105 55.9516602,116.433105 C55.308431,116.433105 54.7131348,116.610921 54.1657715,116.966553 C53.6184082,117.322184 53.1839193,117.79069 52.8623047,118.37207 L52.8623047,118.37207 L52.7231445,118.37207 L52.3056641,116.62793 L50.1625977,116.62793 L50.1625977,127 L52.9921875,127 Z M64.1621094,127 L68.1142578,116.62793 L65.1547852,116.62793 L63.1601562,122.537598 C62.9127604,123.360189 62.7736003,124.068359 62.7426758,124.662109 L62.7426758,124.662109 L62.6870117,124.662109 C62.6313477,123.994141 62.4921875,123.28597 62.2695312,122.537598 L62.2695312,122.537598 L60.265625,116.62793 L57.3061523,116.62793 L61.2583008,127 L64.1621094,127 Z M74.2929688,127.185547 C75.1031901,127.185547 75.7897135,127.125244 76.3525391,127.004639 C76.9153646,126.884033 77.4441732,126.700033 77.9389648,126.452637 L77.9389648,126.452637 L77.9389648,124.263184 C77.3328451,124.547689 76.7514648,124.754883 76.1948242,124.884766 C75.6381836,125.014648 75.047526,125.07959 74.4228516,125.07959 C73.6188151,125.07959 72.9941406,124.853841 72.5488281,124.402344 C72.1035156,123.950846 71.8653971,123.323079 71.8344727,122.519043 L71.8344727,122.519043 L78.5234375,122.519043 L78.5234375,121.145996 C78.5234375,119.673991 78.1152344,118.520508 77.2988281,117.685547 C76.4824219,116.850586 75.3413086,116.433105 73.8754883,116.433105 C72.3416341,116.433105 71.1402181,116.907796 70.2712402,117.857178 C69.4022624,118.806559 68.9677734,120.150228 68.9677734,121.888184 C68.9677734,123.57666 69.4378255,124.881673 70.3779297,125.803223 C71.3180339,126.724772 72.6230469,127.185547 74.2929688,127.185547 Z M75.8701172,120.635742 L71.8994141,120.635742 C71.9488932,119.936849 72.1437174,119.397217 72.4838867,119.016846 C72.824056,118.636475 73.2941081,118.446289 73.894043,118.446289 C74.4939779,118.446289 74.9702148,118.636475 75.3227539,119.016846 C75.675293,119.397217 75.8577474,119.936849 75.8701172,120.635742 L75.8701172,120.635742 Z M83.6538086,127 L83.6538086,121.721191 C83.6538086,120.88623 83.9058431,120.236816 84.4099121,119.772949 C84.9139811,119.309082 85.617513,119.077148 86.5205078,119.077148 C86.8483073,119.077148 87.1266276,119.108073 87.3554688,119.169922 L87.3554688,119.169922 L87.5688477,116.516602 C87.3152669,116.460938 86.9967448,116.433105 86.6132812,116.433105 C85.9700521,116.433105 85.3747559,116.610921 84.8273926,116.966553 C84.2800293,117.322184 83.8455404,117.79069 83.5239258,118.37207 L83.5239258,118.37207 L83.3847656,118.37207 L82.9672852,116.62793 L80.8242188,116.62793 L80.8242188,127 L83.6538086,127 Z M96.0019531,127 L96.9853516,123.771484 L101.930176,123.771484 L102.913574,127 L106.012207,127 L101.206543,113.380859 L97.6904297,113.380859 L92.9033203,127 L96.0019531,127 Z M101.243652,121.359375 L97.7089844,121.359375 C98.6738281,118.236003 99.2583008,116.278483 99.4624023,115.486816 C99.5118815,115.709473 99.5938314,116.012533 99.708252,116.395996 C99.8226725,116.77946 100.334473,118.433919 101.243652,121.359375 L101.243652,121.359375 Z" id="ServerA" fill="#BE92FB" fill-rule="nonzero"></path>
        <rect id="Rectangle" stroke="#BE92FB" stroke-width="3" fill="#FDFBFE" x="16.5" y="15.5" width="99" height="82" rx="9"></rect>
        <path d="M95.8623913,31.0406522 C95.8623913,29.9605217 94.986,29.0841304 93.9058696,29.0841304 L38.0941298,29.0841304 C37.0139987,29.0841304 36.137608,29.9605217 36.137608,31.0406522 L36.137608,42.6115217 C36.137608,43.6916522 37.0139987,44.5680435 38.0941298,44.5680435 L93.9058696,44.5680435 C94.986,44.5680435 95.8623913,43.6916522 95.8623913,42.6115217 L95.8623913,31.0406522 Z M93.2536957,41.9567391 L38.7463037,41.9592891 L38.7463037,31.6927674 L93.2536957,31.6927674 L93.2536957,41.9567391 Z" id="Fill-1" fill="#BE92FB"></path>
        <path d="M51.326087,36.826087 C51.326087,39.9748478 46.6054565,39.9748478 46.6054565,36.826087 C46.6054565,33.6773261 51.326087,33.6773261 51.326087,36.826087" id="Fill-2" fill="#BE92FB"></path>
        <path d="M58.9813043,36.826087 C58.9813043,39.9748478 54.2606739,39.9748478 54.2606739,36.826087 C54.2606739,33.6773261 58.9813043,33.6773261 58.9813043,36.826087" id="Fill-3" fill="#BE92FB"></path>
        <path d="M66.6391304,36.826087 C66.6391304,39.9748478 61.9159565,39.9748478 61.9159565,36.826087 C61.9159565,33.6773261 66.6391304,33.6773261 66.6391304,36.826087" id="Fill-4" fill="#BE92FB"></path>
        <path d="M95.8623913,50.6058696 C95.8623913,49.5257391 94.986,48.6493478 93.9058696,48.6493478 L38.0941298,48.6493478 C37.0139987,48.6493478 36.137608,49.5257391 36.137608,50.6058696 L36.137608,62.1767391 C36.137608,63.2568696 37.0139987,64.1332609 38.0941298,64.1332609 L93.9058696,64.1332609 C94.986,64.1332609 95.8623913,63.2568696 95.8623913,62.1767391 L95.8623913,50.6058696 Z M93.2536957,61.5219565 L38.7463037,61.5245065 L38.7463037,51.2579848 L93.2536957,51.2579848 L93.2536957,61.5219565 Z" id="Fill-5" fill="#BE92FB"></path>
        <path d="M51.326087,56.3913043 C51.326087,59.5400652 46.6054565,59.5400652 46.6054565,56.3913043 C46.6054565,53.2425435 51.326087,53.2425435 51.326087,56.3913043" id="Fill-6" fill="#BE92FB"></path>
        <path d="M58.9813043,56.3913043 C58.9813043,59.5400652 54.2606739,59.5400652 54.2606739,56.3913043 C54.2606739,53.2425435 58.9813043,53.2425435 58.9813043,56.3913043" id="Fill-7" fill="#BE92FB"></path>
        <path d="M66.6391304,56.3913043 C66.6391304,59.5400652 61.9159565,59.5400652 61.9159565,56.3913043 C61.9159565,53.2425435 66.6391304,53.2425435 66.6391304,56.3913043" id="Fill-8" fill="#BE92FB"></path>
        <path d="M95.8623913,81.7419565 L95.8623913,70.171087 C95.8623913,69.0909565 94.986,68.2145652 93.9058696,68.2145652 L38.0941298,68.2145652 C37.0139987,68.2145652 36.137608,69.0909565 36.137608,70.171087 L36.137608,81.7419565 C36.137608,82.8220883 37.0139987,83.6984796 38.0941298,83.6984796 L93.9058696,83.6984796 C94.986,83.6984796 95.8623913,82.8220883 95.8623913,81.7419565 Z M93.2536957,81.0897826 L38.7463037,81.0897826 L38.7463037,70.8232609 L93.2536957,70.8232609 L93.2536957,81.0897826 Z" id="Fill-9" fill="#BE92FB"></path>
        <path d="M51.326087,75.9565217 C51.326087,79.1052826 46.6054565,79.1052826 46.6054565,75.9565217 C46.6054565,72.8077609 51.326087,72.8077609 51.326087,75.9565217" id="Fill-10" fill="#BE92FB"></path>
        <path d="M58.9813043,75.9565217 C58.9813043,79.1052826 54.2606739,79.1052826 54.2606739,75.9565217 C54.2606739,72.8077609 58.9813043,72.8077609 58.9813043,75.9565217" id="Fill-11" fill="#BE92FB"></path>
        <path d="M66.6391304,75.9565217 C66.6391304,79.1052826 61.9159565,79.1052826 61.9159565,75.9565217 C61.9159565,72.8077609 66.6391304,72.8077609 66.6391304,75.9565217" id="Fill-12" fill="#BE92FB"></path>
        <rect id="Rectangle" stroke="#BE92FB" stroke-width="3" fill="#FDFBFE" x="726.5" y="15.5" width="99" height="82" rx="9"></rect>
        <path d="M805.862391,31.0406522 C805.862391,29.9605217 804.986,29.0841304 803.90587,29.0841304 L748.09413,29.0841304 C747.013999,29.0841304 746.137608,29.9605217 746.137608,31.0406522 L746.137608,42.6115217 C746.137608,43.6916522 747.013999,44.5680435 748.09413,44.5680435 L803.90587,44.5680435 C804.986,44.5680435 805.862391,43.6916522 805.862391,42.6115217 L805.862391,31.0406522 Z M803.253696,41.9567391 L748.746304,41.9592891 L748.746304,31.6927674 L803.253696,31.6927674 L803.253696,41.9567391 Z" id="Fill-1" fill="#BE92FB"></path>
        <path d="M761.326087,36.826087 C761.326087,39.9748478 756.605457,39.9748478 756.605457,36.826087 C756.605457,33.6773261 761.326087,33.6773261 761.326087,36.826087" id="Fill-2" fill="#BE92FB"></path>
        <path d="M768.981304,36.826087 C768.981304,39.9748478 764.260674,39.9748478 764.260674,36.826087 C764.260674,33.6773261 768.981304,33.6773261 768.981304,36.826087" id="Fill-3" fill="#BE92FB"></path>
        <path d="M776.63913,36.826087 C776.63913,39.9748478 771.915957,39.9748478 771.915957,36.826087 C771.915957,33.6773261 776.63913,33.6773261 776.63913,36.826087" id="Fill-4" fill="#BE92FB"></path>
        <path d="M805.862391,50.6058696 C805.862391,49.5257391 804.986,48.6493478 803.90587,48.6493478 L748.09413,48.6493478 C747.013999,48.6493478 746.137608,49.5257391 746.137608,50.6058696 L746.137608,62.1767391 C746.137608,63.2568696 747.013999,64.1332609 748.09413,64.1332609 L803.90587,64.1332609 C804.986,64.1332609 805.862391,63.2568696 805.862391,62.1767391 L805.862391,50.6058696 Z M803.253696,61.5219565 L748.746304,61.5245065 L748.746304,51.2579848 L803.253696,51.2579848 L803.253696,61.5219565 Z" id="Fill-5" fill="#BE92FB"></path>
        <path d="M761.326087,56.3913043 C761.326087,59.5400652 756.605457,59.5400652 756.605457,56.3913043 C756.605457,53.2425435 761.326087,53.2425435 761.326087,56.3913043" id="Fill-6" fill="#BE92FB"></path>
        <path d="M768.981304,56.3913043 C768.981304,59.5400652 764.260674,59.5400652 764.260674,56.3913043 C764.260674,53.2425435 768.981304,53.2425435 768.981304,56.3913043" id="Fill-7" fill="#BE92FB"></path>
        <path d="M776.63913,56.3913043 C776.63913,59.5400652 771.915957,59.5400652 771.915957,56.3913043 C771.915957,53.2425435 776.63913,53.2425435 776.63913,56.3913043" id="Fill-8" fill="#BE92FB"></path>
        <path d="M805.862391,81.7419565 L805.862391,70.171087 C805.862391,69.0909565 804.986,68.2145652 803.90587,68.2145652 L748.09413,68.2145652 C747.013999,68.2145652 746.137608,69.0909565 746.137608,70.171087 L746.137608,81.7419565 C746.137608,82.8220883 747.013999,83.6984796 748.09413,83.6984796 L803.90587,83.6984796 C804.986,83.6984796 805.862391,82.8220883 805.862391,81.7419565 Z M803.253696,81.0897826 L748.746304,81.0897826 L748.746304,70.8232609 L803.253696,70.8232609 L803.253696,81.0897826 Z" id="Fill-9" fill="#BE92FB"></path>
        <path d="M761.326087,75.9565217 C761.326087,79.1052826 756.605457,79.1052826 756.605457,75.9565217 C756.605457,72.8077609 761.326087,72.8077609 761.326087,75.9565217" id="Fill-10" fill="#BE92FB"></path>
        <path d="M768.981304,75.9565217 C768.981304,79.1052826 764.260674,79.1052826 764.260674,75.9565217 C764.260674,72.8077609 768.981304,72.8077609 768.981304,75.9565217" id="Fill-11" fill="#BE92FB"></path>
        <path d="M776.63913,75.9565217 C776.63913,79.1052826 771.915957,79.1052826 771.915957,75.9565217 C771.915957,72.8077609 776.63913,72.8077609 776.63913,75.9565217" id="Fill-12" fill="#BE92FB"></path>
        <path d="M740.872314,127.185547 C742.443278,127.185547 743.669434,126.833008 744.550781,126.12793 C745.432129,125.422852 745.872803,124.458008 745.872803,123.233398 C745.872803,122.348958 745.637777,121.602132 745.167725,120.99292 C744.697673,120.383708 743.828695,119.776042 742.560791,119.169922 C741.602132,118.71224 740.994466,118.395264 740.737793,118.218994 C740.48112,118.042725 740.294027,117.86027 740.176514,117.671631 C740.059001,117.482992 740.000244,117.261882 740.000244,117.008301 C740.000244,116.600098 740.145589,116.269206 740.436279,116.015625 C740.726969,115.762044 741.14445,115.635254 741.688721,115.635254 C742.146403,115.635254 742.611816,115.69401 743.084961,115.811523 C743.558105,115.929036 744.156494,116.13623 744.880127,116.433105 L744.880127,116.433105 L745.807861,114.197266 C745.108968,113.894206 744.439453,113.65918 743.799316,113.492188 C743.15918,113.325195 742.486572,113.241699 741.781494,113.241699 C740.346598,113.241699 739.222493,113.584961 738.40918,114.271484 C737.595866,114.958008 737.189209,115.901204 737.189209,117.101074 C737.189209,117.738118 737.312907,118.294759 737.560303,118.770996 C737.807699,119.247233 738.13859,119.664714 738.552979,120.023438 C738.967367,120.382161 739.588949,120.756348 740.417725,121.145996 C741.302165,121.566569 741.888184,121.872721 742.175781,122.064453 C742.463379,122.256185 742.681396,122.455648 742.829834,122.662842 C742.978271,122.870036 743.05249,123.106608 743.05249,123.372559 C743.05249,123.848796 742.883952,124.20752 742.546875,124.44873 C742.209798,124.689941 741.72583,124.810547 741.094971,124.810547 C740.569255,124.810547 739.989421,124.727051 739.355469,124.560059 C738.721517,124.393066 737.946859,124.105469 737.031494,123.697266 L737.031494,123.697266 L737.031494,126.369141 C738.144775,126.913411 739.425049,127.185547 740.872314,127.185547 Z M752.802979,127.185547 C753.6132,127.185547 754.299723,127.125244 754.862549,127.004639 C755.425374,126.884033 755.954183,126.700033 756.448975,126.452637 L756.448975,126.452637 L756.448975,124.263184 C755.842855,124.547689 755.261475,124.754883 754.704834,124.884766 C754.148193,125.014648 753.557536,125.07959 752.932861,125.07959 C752.128825,125.07959 751.50415,124.853841 751.058838,124.402344 C750.613525,123.950846 750.375407,123.323079 750.344482,122.519043 L750.344482,122.519043 L757.033447,122.519043 L757.033447,121.145996 C757.033447,119.673991 756.625244,118.520508 755.808838,117.685547 C754.992432,116.850586 753.851318,116.433105 752.385498,116.433105 C750.851644,116.433105 749.650228,116.907796 748.78125,117.857178 C747.912272,118.806559 747.477783,120.150228 747.477783,121.888184 C747.477783,123.57666 747.947835,124.881673 748.887939,125.803223 C749.828044,126.724772 751.133057,127.185547 752.802979,127.185547 Z M754.380127,120.635742 L750.409424,120.635742 C750.458903,119.936849 750.653727,119.397217 750.993896,119.016846 C751.334066,118.636475 751.804118,118.446289 752.404053,118.446289 C753.003988,118.446289 753.480225,118.636475 753.832764,119.016846 C754.185303,119.397217 754.367757,119.936849 754.380127,120.635742 L754.380127,120.635742 Z M762.163818,127 L762.163818,121.721191 C762.163818,120.88623 762.415853,120.236816 762.919922,119.772949 C763.423991,119.309082 764.127523,119.077148 765.030518,119.077148 C765.358317,119.077148 765.636637,119.108073 765.865479,119.169922 L765.865479,119.169922 L766.078857,116.516602 C765.825277,116.460938 765.506755,116.433105 765.123291,116.433105 C764.480062,116.433105 763.884766,116.610921 763.337402,116.966553 C762.790039,117.322184 762.35555,117.79069 762.033936,118.37207 L762.033936,118.37207 L761.894775,118.37207 L761.477295,116.62793 L759.334229,116.62793 L759.334229,127 L762.163818,127 Z M773.33374,127 L777.285889,116.62793 L774.326416,116.62793 L772.331787,122.537598 C772.084391,123.360189 771.945231,124.068359 771.914307,124.662109 L771.914307,124.662109 L771.858643,124.662109 C771.802979,123.994141 771.663818,123.28597 771.441162,122.537598 L771.441162,122.537598 L769.437256,116.62793 L766.477783,116.62793 L770.429932,127 L773.33374,127 Z M783.4646,127.185547 C784.274821,127.185547 784.961344,127.125244 785.52417,127.004639 C786.086995,126.884033 786.615804,126.700033 787.110596,126.452637 L787.110596,126.452637 L787.110596,124.263184 C786.504476,124.547689 785.923096,124.754883 785.366455,124.884766 C784.809814,125.014648 784.219157,125.07959 783.594482,125.07959 C782.790446,125.07959 782.165771,124.853841 781.720459,124.402344 C781.275146,123.950846 781.037028,123.323079 781.006104,122.519043 L781.006104,122.519043 L787.695068,122.519043 L787.695068,121.145996 C787.695068,119.673991 787.286865,118.520508 786.470459,117.685547 C785.654053,116.850586 784.512939,116.433105 783.047119,116.433105 C781.513265,116.433105 780.311849,116.907796 779.442871,117.857178 C778.573893,118.806559 778.139404,120.150228 778.139404,121.888184 C778.139404,123.57666 778.609456,124.881673 779.549561,125.803223 C780.489665,126.724772 781.794678,127.185547 783.4646,127.185547 Z M785.041748,120.635742 L781.071045,120.635742 C781.120524,119.936849 781.315348,119.397217 781.655518,119.016846 C781.995687,118.636475 782.465739,118.446289 783.065674,118.446289 C783.665609,118.446289 784.141846,118.636475 784.494385,119.016846 C784.846924,119.397217 785.029378,119.936849 785.041748,120.635742 L785.041748,120.635742 Z M792.825439,127 L792.825439,121.721191 C792.825439,120.88623 793.077474,120.236816 793.581543,119.772949 C794.085612,119.309082 794.789144,119.077148 795.692139,119.077148 C796.019938,119.077148 796.298258,119.108073 796.5271,119.169922 L796.5271,119.169922 L796.740479,116.516602 C796.486898,116.460938 796.168376,116.433105 795.784912,116.433105 C795.141683,116.433105 794.546387,116.610921 793.999023,116.966553 C793.45166,117.322184 793.017171,117.79069 792.695557,118.37207 L792.695557,118.37207 L792.556396,118.37207 L792.138916,116.62793 L789.99585,116.62793 L789.99585,127 L792.825439,127 Z M808.856689,127 C810.390544,127 811.604329,126.653646 812.498047,125.960938 C813.391764,125.268229 813.838623,124.303385 813.838623,123.066406 C813.838623,122.194336 813.648438,121.495443 813.268066,120.969727 C812.887695,120.44401 812.26766,120.085286 811.407959,119.893555 L811.407959,119.893555 L811.407959,119.800781 C812.038818,119.695638 812.544434,119.383301 812.924805,118.86377 C813.305176,118.344238 813.495361,117.679362 813.495361,116.869141 C813.495361,115.675456 813.060872,114.804932 812.191895,114.257568 C811.322917,113.710205 809.926676,113.436523 808.003174,113.436523 L808.003174,113.436523 L803.781982,113.436523 L803.781982,127 L808.856689,127 Z M808.327881,118.808105 L806.657959,118.808105 L806.657959,115.792969 L808.170166,115.792969 C808.992757,115.792969 809.594238,115.905843 809.974609,116.131592 C810.35498,116.35734 810.545166,116.72998 810.545166,117.249512 C810.545166,117.806152 810.370443,118.205078 810.020996,118.446289 C809.671549,118.6875 809.107178,118.808105 808.327881,118.808105 L808.327881,118.808105 Z M808.531982,124.625 L806.657959,124.625 L806.657959,121.090332 L808.439209,121.090332 C810.047282,121.090332 810.851318,121.653158 810.851318,122.778809 C810.851318,123.403483 810.662679,123.86735 810.2854,124.17041 C809.908122,124.47347 809.323649,124.625 808.531982,124.625 L808.531982,124.625 Z" id="ServerB" fill="#BE92FB" fill-rule="nonzero"></path>
        <path d="M589.487751,-35.4095713 C588.904475,-34.8877754 588.848256,-34.0533156 589.298012,-33.5051644 C589.747768,-32.9570133 590.654268,-32.8656698 591.202419,-33.3154254 L596.641654,-37.798859 L596.641654,152.734771 C596.641654,153.479641 597.246023,154.08401 597.990894,154.08401 C598.735764,154.08401 599.340133,153.479641 599.340133,152.734771 L599.340133,-37.798859 L604.779368,-33.3154254 C605.32752,-32.8656788 606.221706,-32.9675734 606.683775,-33.5051644 C607.159877,-34.0603316 607.042169,-34.9615788 606.494036,-35.4095713 L598.848345,-41.7060234 C598.272129,-42.1153648 597.690607,-42.0802261 597.133686,-41.7060234 L589.487751,-35.4095713 Z" id="Fill-1" fill="#E3E3E3" transform="translate(597.990789, 56.042005) rotate(-270.000000) translate(-597.990789, -56.042005) "></path>
        <g id="Rectangle">
            <use fill="black" fill-opacity="1" filter="url(#filter-2)" xlink:href="#path-1"></use>
            <rect stroke="#E7E7E7" stroke-width="1" stroke-linejoin="square" fill="#FFFFFF" fill-rule="evenodd" x="547.5" y="21.5" width="101" height="69" rx="3"></rect>
        </g>
        <path d="M576.241699,42.1269531 C577.164225,42.1269531 577.989421,41.9894206 578.717285,41.7143555 L578.717285,41.7143555 L578.717285,40.4130859 C578.319499,40.5358073 577.936523,40.6363118 577.568359,40.7145996 C577.200195,40.7928874 576.819336,40.8320312 576.425781,40.8320312 C575.515951,40.8320312 574.820882,40.5400391 574.340576,39.9560547 C573.86027,39.3720703 573.620117,38.5109049 573.620117,37.3725586 C573.620117,36.2849935 573.869792,35.4322917 574.369141,34.8144531 C574.86849,34.1966146 575.554036,33.8876953 576.425781,33.8876953 C576.810872,33.8876953 577.177979,33.9437663 577.5271,34.0559082 C577.876221,34.1680501 578.207357,34.2981771 578.520508,34.4462891 L578.520508,34.4462891 L579.066406,33.1831055 C578.26237,32.785319 577.386393,32.5864258 576.438477,32.5864258 C575.537109,32.5864258 574.752116,32.7789714 574.083496,33.1640625 C573.414876,33.5491536 572.90389,34.1035156 572.550537,34.8271484 C572.197184,35.5507812 572.020508,36.3950195 572.020508,37.3598633 C572.020508,38.8917643 572.38444,40.0692546 573.112305,40.892334 C573.840169,41.7154134 574.883301,42.1269531 576.241699,42.1269531 Z M586.163086,42 L586.163086,40.6987305 L582.233887,40.6987305 L582.233887,32.7197266 L580.716797,32.7197266 L580.716797,42 L586.163086,42 Z M591.660156,42.1269531 C593.043945,42.1269531 594.113525,41.7080078 594.868896,40.8701172 C595.624268,40.0322266 596.001953,38.8579102 596.001953,37.347168 C596.001953,35.832194 595.625326,34.6578776 594.87207,33.8242188 C594.118815,32.9905599 593.052409,32.5737305 591.672852,32.5737305 C590.272135,32.5737305 589.194092,32.9842122 588.438721,33.8051758 C587.68335,34.6261393 587.305664,35.8025716 587.305664,37.3344727 C587.305664,38.8663737 587.681234,40.0480957 588.432373,40.8796387 C589.183512,41.7111816 590.25944,42.1269531 591.660156,42.1269531 Z M591.660156,40.8320312 C590.754557,40.8320312 590.071126,40.5368652 589.609863,39.9465332 C589.1486,39.3562012 588.917969,38.4897461 588.917969,37.347168 C588.917969,36.2088216 589.149658,35.3455404 589.613037,34.7573242 C590.076416,34.1691081 590.763021,33.875 591.672852,33.875 C592.574219,33.875 593.25236,34.1691081 593.707275,34.7573242 C594.162191,35.3455404 594.389648,36.2088216 594.389648,37.347168 C594.389648,38.5024414 594.160075,39.3720703 593.700928,39.9560547 C593.241781,40.5400391 592.561523,40.8320312 591.660156,40.8320312 Z M599.372559,42 L599.372559,37.1757812 C599.372559,36.5240885 599.342936,35.8046875 599.283691,35.0175781 L599.283691,35.0175781 L599.251953,34.6049805 L599.302734,34.6049805 L603.866699,42 L605.726562,42 L605.726562,32.7197266 L604.336426,32.7197266 L604.336426,37.5820312 C604.336426,37.9248047 604.349121,38.4019368 604.374512,39.0134277 C604.399902,39.6249186 604.416829,39.9793294 604.425293,40.0766602 L604.425293,40.0766602 L604.387207,40.0766602 L599.835938,32.7197266 L597.995117,32.7197266 L597.995117,42 L599.372559,42 Z M613.42627,42 L613.42627,40.7114258 L609.693848,40.7114258 L609.693848,37.7978516 L613.191406,37.7978516 L613.191406,36.5283203 L609.693848,36.5283203 L609.693848,34.0019531 L613.42627,34.0019531 L613.42627,32.7197266 L608.176758,32.7197266 L608.176758,42 L613.42627,42 Z M618.02832,42 C619.62793,42 620.853027,41.5948079 621.703613,40.7844238 C622.554199,39.9740397 622.979492,38.8028971 622.979492,37.2709961 C622.979492,35.8279622 622.56901,34.7086589 621.748047,33.9130859 C620.927083,33.117513 619.778158,32.7197266 618.30127,32.7197266 L618.30127,32.7197266 L615.432129,32.7197266 L615.432129,42 L618.02832,42 Z M618.02832,40.7241211 L616.949219,40.7241211 L616.949219,33.9892578 L618.263184,33.9892578 C620.340983,33.9892578 621.379883,35.1000977 621.379883,37.3217773 C621.379883,39.5900065 620.262695,40.7241211 618.02832,40.7241211 L618.02832,40.7241211 Z" id="CLONED" fill="#888888" fill-rule="nonzero"></path>
        <rect id="Rectangle" fill="#18A0FF" x="570" y="52" width="56" height="26" rx="4"></rect>
        <path d="M582.278564,71 L582.278564,66.9936523 L583.391846,66.9936523 C584.744385,66.9936523 585.786865,66.6958008 586.519287,66.1000977 C587.251709,65.5043945 587.61792,64.6474609 587.61792,63.5292969 C587.61792,62.4648438 587.284668,61.6591797 586.618164,61.1123047 C585.95166,60.5654297 584.949463,60.2919922 583.611572,60.2919922 L583.611572,60.2919922 L580.528076,60.2919922 L580.528076,71 L582.278564,71 Z M583.20874,65.5214844 L582.278564,65.5214844 L582.278564,61.7568359 L583.494385,61.7568359 C584.290283,61.7568359 584.876221,61.9082031 585.252197,62.2109375 C585.628174,62.5136719 585.816162,62.9726562 585.816162,63.5878906 C585.816162,64.2519531 585.606201,64.7402344 585.186279,65.0527344 C584.766357,65.3652344 584.107178,65.5214844 583.20874,65.5214844 L583.20874,65.5214844 Z M594.253662,71.1464844 C595.850342,71.1464844 597.084473,70.6630859 597.956055,69.6962891 C598.827637,68.7294922 599.263428,67.3745117 599.263428,65.6313477 C599.263428,63.8833008 598.828857,62.5283203 597.959717,61.5664062 C597.090576,60.6044922 595.860107,60.1235352 594.268311,60.1235352 C592.6521,60.1235352 591.408203,60.597168 590.536621,61.5444336 C589.665039,62.4916992 589.229248,63.8491211 589.229248,65.6166992 C589.229248,67.3842773 589.662598,68.7478027 590.529297,69.7072754 C591.395996,70.666748 592.637451,71.1464844 594.253662,71.1464844 Z M594.253662,69.6523438 C593.20874,69.6523438 592.420166,69.3117676 591.887939,68.6306152 C591.355713,67.9494629 591.0896,66.949707 591.0896,65.6313477 C591.0896,64.3178711 591.356934,63.3217773 591.891602,62.6430664 C592.42627,61.9643555 593.218506,61.625 594.268311,61.625 C595.30835,61.625 596.09082,61.9643555 596.615723,62.6430664 C597.140625,63.3217773 597.403076,64.3178711 597.403076,65.6313477 C597.403076,66.9643555 597.138184,67.9677734 596.608398,68.6416016 C596.078613,69.3154297 595.293701,69.6523438 594.253662,69.6523438 Z M603.855713,71.1464844 C605.06665,71.1464844 606.016357,70.8754883 606.704834,70.3334961 C607.393311,69.7915039 607.737549,69.0444336 607.737549,68.0922852 C607.737549,67.6088867 607.6521,67.1889648 607.481201,66.8325195 C607.310303,66.4760742 607.041748,66.15625 606.675537,65.8730469 C606.309326,65.5898438 605.733154,65.284668 604.947021,64.9575195 C604.248779,64.6694336 603.765381,64.4375 603.496826,64.2617188 C603.228271,64.0859375 603.0354,63.8991699 602.918213,63.701416 C602.801025,63.5036621 602.742432,63.265625 602.742432,62.9873047 C602.742432,62.5820312 602.888916,62.2561035 603.181885,62.0095215 C603.474854,61.7629395 603.904541,61.6396484 604.470947,61.6396484 C605.218018,61.6396484 606.067627,61.8398438 607.019775,62.2402344 L607.019775,62.2402344 L607.576416,60.8120117 C606.560791,60.362793 605.540283,60.1381836 604.514893,60.1381836 C603.445557,60.1381836 602.593506,60.3945312 601.95874,60.9072266 C601.323975,61.4199219 601.006592,62.1230469 601.006592,63.0166016 C601.006592,63.7294922 601.206787,64.3398438 601.607178,64.8476562 C602.007568,65.3554688 602.696045,65.8071289 603.672607,66.2026367 C604.619873,66.5834961 605.244873,66.9130859 605.547607,67.1914062 C605.850342,67.4697266 606.001709,67.809082 606.001709,68.2094727 C606.001709,68.6538086 605.836914,69.0078125 605.507324,69.2714844 C605.177734,69.5351562 604.66626,69.6669922 603.9729,69.6669922 C603.499268,69.6669922 602.987793,69.6010742 602.438477,69.4692383 C601.88916,69.3374023 601.370361,69.1567383 600.88208,68.9272461 L600.88208,68.9272461 L600.88208,70.5825195 C601.653564,70.9584961 602.644775,71.1464844 603.855713,71.1464844 Z M613.509033,71 L613.509033,61.793457 L616.658447,61.793457 L616.658447,60.2919922 L608.609131,60.2919922 L608.609131,61.793457 L611.758545,61.793457 L611.758545,71 L613.509033,71 Z" id="POST" fill="#FFFFFF" fill-rule="nonzero"></path>
        <path d="M579.972412,110 L579.972412,105.994629 L583.647705,105.994629 L583.647705,110 L585.609131,110 L585.609131,100.719727 L583.647705,100.719727 L583.647705,104.356934 L579.972412,104.356934 L579.972412,100.719727 L578.004639,100.719727 L578.004639,110 L579.972412,110 Z M591.531494,110 L591.531494,102.357422 L594.051514,102.357422 L594.051514,100.719727 L587.043701,100.719727 L587.043701,102.357422 L589.563721,102.357422 L589.563721,110 L591.531494,110 Z M599.059814,110 L599.059814,102.357422 L601.579834,102.357422 L601.579834,100.719727 L594.572021,100.719727 L594.572021,102.357422 L597.092041,102.357422 L597.092041,110 L599.059814,110 Z M604.97583,110 L604.97583,106.699219 L605.820068,106.699219 C606.97111,106.699219 607.858724,106.434733 608.48291,105.905762 C609.107096,105.37679 609.419189,104.612956 609.419189,103.614258 C609.419189,102.653646 609.126139,101.931071 608.540039,101.446533 C607.953939,100.961995 607.098063,100.719727 605.972412,100.719727 L605.972412,100.719727 L603.008057,100.719727 L603.008057,110 L604.97583,110 Z M605.623291,105.086914 L604.97583,105.086914 L604.97583,102.332031 L605.87085,102.332031 C606.408285,102.332031 606.802897,102.442057 607.054688,102.662109 C607.306478,102.882161 607.432373,103.222819 607.432373,103.684082 C607.432373,104.141113 607.282145,104.489176 606.981689,104.728271 C606.681234,104.967367 606.228434,105.086914 605.623291,105.086914 L605.623291,105.086914 Z M613.227783,110.126953 C614.302653,110.126953 615.141602,109.885742 615.744629,109.40332 C616.347656,108.920898 616.64917,108.260742 616.64917,107.422852 C616.64917,106.817708 616.488363,106.306722 616.166748,105.889893 C615.845133,105.473063 615.25057,105.057292 614.383057,104.642578 C613.727132,104.329427 613.311361,104.112549 613.135742,103.991943 C612.960124,103.871338 612.832113,103.746501 612.751709,103.617432 C612.671305,103.488363 612.631104,103.337077 612.631104,103.163574 C612.631104,102.884277 612.73055,102.657878 612.929443,102.484375 C613.128337,102.310872 613.413981,102.224121 613.786377,102.224121 C614.099528,102.224121 614.417969,102.264323 614.741699,102.344727 C615.06543,102.42513 615.474854,102.566895 615.969971,102.77002 L615.969971,102.77002 L616.604736,101.240234 C616.126546,101.032878 615.668457,100.87207 615.230469,100.757812 C614.79248,100.643555 614.332275,100.586426 613.849854,100.586426 C612.868083,100.586426 612.098958,100.821289 611.54248,101.291016 C610.986003,101.760742 610.707764,102.406087 610.707764,103.227051 C610.707764,103.662923 610.792399,104.043783 610.96167,104.369629 C611.130941,104.695475 611.35734,104.98112 611.640869,105.226562 C611.924398,105.472005 612.349691,105.728027 612.916748,105.994629 C613.521891,106.282389 613.922852,106.491862 614.119629,106.623047 C614.316406,106.754232 614.465576,106.890706 614.567139,107.032471 C614.668701,107.174235 614.719482,107.3361 614.719482,107.518066 C614.719482,107.843913 614.604167,108.089355 614.373535,108.254395 C614.142904,108.419434 613.811768,108.501953 613.380127,108.501953 C613.020426,108.501953 612.623698,108.444824 612.189941,108.330566 C611.756185,108.216309 611.226156,108.019531 610.599854,107.740234 L610.599854,107.740234 L610.599854,109.568359 C611.361572,109.940755 612.237549,110.126953 613.227783,110.126953 Z" id="HTTPS" fill="#6E6E6E" fill-rule="nonzero"></path>
        <path d="M235.487751,-35.4095713 C234.904475,-34.8877754 234.848256,-34.0533156 235.298012,-33.5051644 C235.747768,-32.9570133 236.654268,-32.8656698 237.202419,-33.3154254 L242.641654,-37.798859 L242.641654,152.734771 C242.641654,153.479641 243.246023,154.08401 243.990894,154.08401 C244.735764,154.08401 245.340133,153.479641 245.340133,152.734771 L245.340133,-37.798859 L250.779368,-33.3154254 C251.32752,-32.8656788 252.221706,-32.9675734 252.683775,-33.5051644 C253.159877,-34.0603316 253.042169,-34.9615788 252.494036,-35.4095713 L244.848345,-41.7060234 C244.272129,-42.1153648 243.690607,-42.0802261 243.133686,-41.7060234 L235.487751,-35.4095713 Z" id="Fill-1" fill="#E3E3E3" transform="translate(243.990789, 56.042005) rotate(-270.000000) translate(-243.990789, -56.042005) "></path>
        <g id="Rectangle">
            <use fill="black" fill-opacity="1" filter="url(#filter-4)" xlink:href="#path-3"></use>
            <rect stroke="#E7E7E7" stroke-width="1" stroke-linejoin="square" fill="#FFFFFF" fill-rule="evenodd" x="193.5" y="21.5" width="101" height="69" rx="3"></rect>
        </g>
        <path d="M217.639648,43 L217.639648,39.2929688 L219.137695,39.2929688 L221.359375,43 L223.085938,43 L220.464355,38.8930664 C221.666178,38.402181 222.26709,37.5791016 222.26709,36.4238281 C222.26709,35.5182292 221.979329,34.8411458 221.403809,34.3925781 C220.828288,33.9440104 219.941732,33.7197266 218.744141,33.7197266 L218.744141,33.7197266 L216.122559,33.7197266 L216.122559,43 L217.639648,43 Z M218.693359,38.0361328 L217.639648,38.0361328 L217.639648,35.0019531 L218.642578,35.0019531 C219.332357,35.0019531 219.848633,35.1162109 220.191406,35.3447266 C220.53418,35.5732422 220.705566,35.9498698 220.705566,36.4746094 C220.705566,36.9908854 220.546875,37.3802083 220.229492,37.6425781 C219.912109,37.9049479 219.400065,38.0361328 218.693359,38.0361328 L218.693359,38.0361328 Z M229.681152,43 L229.681152,41.7114258 L225.94873,41.7114258 L225.94873,38.7978516 L229.446289,38.7978516 L229.446289,37.5283203 L225.94873,37.5283203 L225.94873,35.0019531 L229.681152,35.0019531 L229.681152,33.7197266 L224.431641,33.7197266 L224.431641,43 L229.681152,43 Z M239.62793,45.2089844 L237.40625,42.815918 C238.227214,42.5027669 238.852458,41.9611003 239.281982,41.190918 C239.711507,40.4207357 239.92627,39.472819 239.92627,38.347168 C239.92627,36.832194 239.549642,35.6578776 238.796387,34.8242188 C238.043132,33.9905599 236.976725,33.5737305 235.597168,33.5737305 C234.196452,33.5737305 233.118408,33.9842122 232.363037,34.8051758 C231.607666,35.6261393 231.22998,36.8025716 231.22998,38.3344727 C231.22998,39.8663737 231.60555,41.0480957 232.356689,41.8796387 C233.107829,42.7111816 234.183757,43.1269531 235.584473,43.1269531 L235.584473,43.1269531 L235.832031,43.1269531 L237.583984,45.2089844 L239.62793,45.2089844 Z M235.584473,41.8320312 C234.678874,41.8320312 233.995443,41.5368652 233.53418,40.9465332 C233.072917,40.3562012 232.842285,39.4897461 232.842285,38.347168 C232.842285,37.2088216 233.073975,36.3455404 233.537354,35.7573242 C234.000732,35.1691081 234.687337,34.875 235.597168,34.875 C236.498535,34.875 237.176676,35.1691081 237.631592,35.7573242 C238.086507,36.3455404 238.313965,37.2088216 238.313965,38.347168 C238.313965,39.5024414 238.084391,40.3720703 237.625244,40.9560547 C237.166097,41.5400391 236.48584,41.8320312 235.584473,41.8320312 Z M245.480469,43.1269531 C246.254883,43.1269531 246.920329,42.9883626 247.476807,42.7111816 C248.033285,42.4340007 248.458577,42.0383301 248.752686,41.5241699 C249.046794,41.0100098 249.193848,40.4101562 249.193848,39.7246094 L249.193848,39.7246094 L249.193848,33.7197266 L247.676758,33.7197266 L247.676758,39.5786133 C247.676758,41.0808919 246.961589,41.8320312 245.53125,41.8320312 C244.794922,41.8320312 244.249023,41.6500651 243.893555,41.2861328 C243.538086,40.9222005 243.360352,40.3572591 243.360352,39.5913086 L243.360352,39.5913086 L243.360352,33.7197266 L241.836914,33.7197266 L241.836914,39.6992188 C241.836914,40.765625 242.156413,41.6035156 242.79541,42.2128906 C243.434408,42.8222656 244.329427,43.1269531 245.480469,43.1269531 Z M256.817383,43 L256.817383,41.7114258 L253.084961,41.7114258 L253.084961,38.7978516 L256.58252,38.7978516 L256.58252,37.5283203 L253.084961,37.5283203 L253.084961,35.0019531 L256.817383,35.0019531 L256.817383,33.7197266 L251.567871,33.7197266 L251.567871,43 L256.817383,43 Z M260.810059,43.1269531 C261.859538,43.1269531 262.682617,42.8920898 263.279297,42.4223633 C263.875977,41.9526367 264.174316,41.3051758 264.174316,40.4799805 C264.174316,40.0610352 264.10026,39.6971029 263.952148,39.3881836 C263.804036,39.0792643 263.571289,38.8020833 263.253906,38.5566406 C262.936523,38.3111979 262.437174,38.0467122 261.755859,37.7631836 C261.150716,37.5135091 260.731771,37.3125 260.499023,37.1601562 C260.266276,37.0078125 260.099121,36.8459473 259.997559,36.6745605 C259.895996,36.5031738 259.845215,36.296875 259.845215,36.0556641 C259.845215,35.7044271 259.972168,35.4219564 260.226074,35.208252 C260.47998,34.9945475 260.852376,34.8876953 261.343262,34.8876953 C261.990723,34.8876953 262.727051,35.0611979 263.552246,35.4082031 L263.552246,35.4082031 L264.034668,34.1704102 C263.15446,33.7810872 262.27002,33.5864258 261.381348,33.5864258 C260.45459,33.5864258 259.716146,33.8085938 259.166016,34.2529297 C258.615885,34.6972656 258.34082,35.3066406 258.34082,36.0810547 C258.34082,36.6988932 258.514323,37.2278646 258.861328,37.6679688 C259.208333,38.1080729 259.805013,38.4995117 260.651367,38.8422852 C261.472331,39.1723633 262.013997,39.4580078 262.276367,39.6992188 C262.538737,39.9404297 262.669922,40.2345378 262.669922,40.581543 C262.669922,40.9666341 262.5271,41.2734375 262.241455,41.5019531 C261.955811,41.7304688 261.512533,41.8447266 260.911621,41.8447266 C260.501139,41.8447266 260.057861,41.7875977 259.581787,41.6733398 C259.105713,41.559082 258.656087,41.4025065 258.23291,41.2036133 L258.23291,41.2036133 L258.23291,42.6381836 C258.90153,42.9640299 259.760579,43.1269531 260.810059,43.1269531 Z M269.17627,43 L269.17627,35.0209961 L271.905762,35.0209961 L271.905762,33.7197266 L264.929688,33.7197266 L264.929688,35.0209961 L267.65918,35.0209961 L267.65918,43 L269.17627,43 Z" id="REQUEST" fill="#888888" fill-rule="nonzero"></path>
        <rect id="Rectangle" fill="#17A0FF" x="216" y="52" width="56" height="26" rx="4"></rect>
        <path d="M228.278564,71 L228.278564,66.9936523 L229.391846,66.9936523 C230.744385,66.9936523 231.786865,66.6958008 232.519287,66.1000977 C233.251709,65.5043945 233.61792,64.6474609 233.61792,63.5292969 C233.61792,62.4648438 233.284668,61.6591797 232.618164,61.1123047 C231.95166,60.5654297 230.949463,60.2919922 229.611572,60.2919922 L229.611572,60.2919922 L226.528076,60.2919922 L226.528076,71 L228.278564,71 Z M229.20874,65.5214844 L228.278564,65.5214844 L228.278564,61.7568359 L229.494385,61.7568359 C230.290283,61.7568359 230.876221,61.9082031 231.252197,62.2109375 C231.628174,62.5136719 231.816162,62.9726562 231.816162,63.5878906 C231.816162,64.2519531 231.606201,64.7402344 231.186279,65.0527344 C230.766357,65.3652344 230.107178,65.5214844 229.20874,65.5214844 L229.20874,65.5214844 Z M240.253662,71.1464844 C241.850342,71.1464844 243.084473,70.6630859 243.956055,69.6962891 C244.827637,68.7294922 245.263428,67.3745117 245.263428,65.6313477 C245.263428,63.8833008 244.828857,62.5283203 243.959717,61.5664062 C243.090576,60.6044922 241.860107,60.1235352 240.268311,60.1235352 C238.6521,60.1235352 237.408203,60.597168 236.536621,61.5444336 C235.665039,62.4916992 235.229248,63.8491211 235.229248,65.6166992 C235.229248,67.3842773 235.662598,68.7478027 236.529297,69.7072754 C237.395996,70.666748 238.637451,71.1464844 240.253662,71.1464844 Z M240.253662,69.6523438 C239.20874,69.6523438 238.420166,69.3117676 237.887939,68.6306152 C237.355713,67.9494629 237.0896,66.949707 237.0896,65.6313477 C237.0896,64.3178711 237.356934,63.3217773 237.891602,62.6430664 C238.42627,61.9643555 239.218506,61.625 240.268311,61.625 C241.30835,61.625 242.09082,61.9643555 242.615723,62.6430664 C243.140625,63.3217773 243.403076,64.3178711 243.403076,65.6313477 C243.403076,66.9643555 243.138184,67.9677734 242.608398,68.6416016 C242.078613,69.3154297 241.293701,69.6523438 240.253662,69.6523438 Z M249.855713,71.1464844 C251.06665,71.1464844 252.016357,70.8754883 252.704834,70.3334961 C253.393311,69.7915039 253.737549,69.0444336 253.737549,68.0922852 C253.737549,67.6088867 253.6521,67.1889648 253.481201,66.8325195 C253.310303,66.4760742 253.041748,66.15625 252.675537,65.8730469 C252.309326,65.5898438 251.733154,65.284668 250.947021,64.9575195 C250.248779,64.6694336 249.765381,64.4375 249.496826,64.2617188 C249.228271,64.0859375 249.0354,63.8991699 248.918213,63.701416 C248.801025,63.5036621 248.742432,63.265625 248.742432,62.9873047 C248.742432,62.5820312 248.888916,62.2561035 249.181885,62.0095215 C249.474854,61.7629395 249.904541,61.6396484 250.470947,61.6396484 C251.218018,61.6396484 252.067627,61.8398438 253.019775,62.2402344 L253.019775,62.2402344 L253.576416,60.8120117 C252.560791,60.362793 251.540283,60.1381836 250.514893,60.1381836 C249.445557,60.1381836 248.593506,60.3945312 247.95874,60.9072266 C247.323975,61.4199219 247.006592,62.1230469 247.006592,63.0166016 C247.006592,63.7294922 247.206787,64.3398438 247.607178,64.8476562 C248.007568,65.3554688 248.696045,65.8071289 249.672607,66.2026367 C250.619873,66.5834961 251.244873,66.9130859 251.547607,67.1914062 C251.850342,67.4697266 252.001709,67.809082 252.001709,68.2094727 C252.001709,68.6538086 251.836914,69.0078125 251.507324,69.2714844 C251.177734,69.5351562 250.66626,69.6669922 249.9729,69.6669922 C249.499268,69.6669922 248.987793,69.6010742 248.438477,69.4692383 C247.88916,69.3374023 247.370361,69.1567383 246.88208,68.9272461 L246.88208,68.9272461 L246.88208,70.5825195 C247.653564,70.9584961 248.644775,71.1464844 249.855713,71.1464844 Z M259.509033,71 L259.509033,61.793457 L262.658447,61.793457 L262.658447,60.2919922 L254.609131,60.2919922 L254.609131,61.793457 L257.758545,61.793457 L257.758545,71 L259.509033,71 Z" id="POST" fill="#FFFFFF" fill-rule="nonzero"></path>
        <path d="M225.972412,110 L225.972412,105.994629 L229.647705,105.994629 L229.647705,110 L231.609131,110 L231.609131,100.719727 L229.647705,100.719727 L229.647705,104.356934 L225.972412,104.356934 L225.972412,100.719727 L224.004639,100.719727 L224.004639,110 L225.972412,110 Z M237.531494,110 L237.531494,102.357422 L240.051514,102.357422 L240.051514,100.719727 L233.043701,100.719727 L233.043701,102.357422 L235.563721,102.357422 L235.563721,110 L237.531494,110 Z M245.059814,110 L245.059814,102.357422 L247.579834,102.357422 L247.579834,100.719727 L240.572021,100.719727 L240.572021,102.357422 L243.092041,102.357422 L243.092041,110 L245.059814,110 Z M250.97583,110 L250.97583,106.699219 L251.820068,106.699219 C252.97111,106.699219 253.858724,106.434733 254.48291,105.905762 C255.107096,105.37679 255.419189,104.612956 255.419189,103.614258 C255.419189,102.653646 255.126139,101.931071 254.540039,101.446533 C253.953939,100.961995 253.098063,100.719727 251.972412,100.719727 L251.972412,100.719727 L249.008057,100.719727 L249.008057,110 L250.97583,110 Z M251.623291,105.086914 L250.97583,105.086914 L250.97583,102.332031 L251.87085,102.332031 C252.408285,102.332031 252.802897,102.442057 253.054688,102.662109 C253.306478,102.882161 253.432373,103.222819 253.432373,103.684082 C253.432373,104.141113 253.282145,104.489176 252.981689,104.728271 C252.681234,104.967367 252.228434,105.086914 251.623291,105.086914 L251.623291,105.086914 Z M259.227783,110.126953 C260.302653,110.126953 261.141602,109.885742 261.744629,109.40332 C262.347656,108.920898 262.64917,108.260742 262.64917,107.422852 C262.64917,106.817708 262.488363,106.306722 262.166748,105.889893 C261.845133,105.473063 261.25057,105.057292 260.383057,104.642578 C259.727132,104.329427 259.311361,104.112549 259.135742,103.991943 C258.960124,103.871338 258.832113,103.746501 258.751709,103.617432 C258.671305,103.488363 258.631104,103.337077 258.631104,103.163574 C258.631104,102.884277 258.73055,102.657878 258.929443,102.484375 C259.128337,102.310872 259.413981,102.224121 259.786377,102.224121 C260.099528,102.224121 260.417969,102.264323 260.741699,102.344727 C261.06543,102.42513 261.474854,102.566895 261.969971,102.77002 L261.969971,102.77002 L262.604736,101.240234 C262.126546,101.032878 261.668457,100.87207 261.230469,100.757812 C260.79248,100.643555 260.332275,100.586426 259.849854,100.586426 C258.868083,100.586426 258.098958,100.821289 257.54248,101.291016 C256.986003,101.760742 256.707764,102.406087 256.707764,103.227051 C256.707764,103.662923 256.792399,104.043783 256.96167,104.369629 C257.130941,104.695475 257.35734,104.98112 257.640869,105.226562 C257.924398,105.472005 258.349691,105.728027 258.916748,105.994629 C259.521891,106.282389 259.922852,106.491862 260.119629,106.623047 C260.316406,106.754232 260.465576,106.890706 260.567139,107.032471 C260.668701,107.174235 260.719482,107.3361 260.719482,107.518066 C260.719482,107.843913 260.604167,108.089355 260.373535,108.254395 C260.142904,108.419434 259.811768,108.501953 259.380127,108.501953 C259.020426,108.501953 258.623698,108.444824 258.189941,108.330566 C257.756185,108.216309 257.226156,108.019531 256.599854,107.740234 L256.599854,107.740234 L256.599854,109.568359 C257.361572,109.940755 258.237549,110.126953 259.227783,110.126953 Z" id="HTTPS" fill="#6E6E6E" fill-rule="nonzero"></path>
    </g>
</svg>