<?xml version="1.0" encoding="UTF-8"?>
<svg width="84px" height="84px" viewBox="0 0 84 84" version="1.1" xmlns="http://www.w3.org/2000/svg" xmlns:xlink="http://www.w3.org/1999/xlink">
    <title>bash</title>
    <g id="bash" stroke="none" stroke-width="1" fill="none" fill-rule="evenodd">
        <g id="Bash_Logo_Colored" transform="translate(11.000000, 11.000000)">
            <rect id="Rectangle" x="0" y="0" width="62" height="62"></rect>
            <g id="Group" transform="translate(2.000000, 0.000000)">
                <path d="M50.9539658,12.6779727 L31.2125108,1.07563353 C28.8547751,-0.314230019 25.9473084,-0.314230019 23.5895727,1.07563353 L3.84811777,12.6779727 C1.49038212,14.0557505 0.0366487407,16.6179337 0.0366487407,19.385575 L0.0366487407,42.5781676 C0.0366487407,45.345809 1.49038212,47.9079922 3.84811777,49.28577 L23.5895727,60.8760234 C24.7623324,61.5649123 26.0816871,61.9153996 27.4010418,61.9153996 C28.7203964,61.9153996 30.0275348,61.5649123 31.2125108,60.8760234 L50.9539658,49.28577 C53.3117014,47.8959064 54.7654348,45.345809 54.7654348,42.5781676 L54.7654348,19.385575 C54.7654348,16.6179337 53.3117014,14.0557505 50.9539658,12.6779727 Z" id="Path" fill="#FFFFFF"></path>
                <path d="M50.9539658,12.6779727 L31.2125108,1.07563353 C30.0397511,0.386744639 28.7203964,0.0362573099 27.4010418,0.0362573099 C26.0816871,0.0362573099 24.7745487,0.386744639 23.5895727,1.07563353 L3.84811777,12.6779727 C1.49038212,14.0557505 0.0366487407,16.6179337 0.0366487407,19.385575 L0.0366487407,42.5781676 C0.0366487407,45.345809 1.49038212,47.9079922 3.84811777,49.28577 L23.5895727,60.8760234 C24.7623324,61.5649123 26.0816871,61.9153996 27.4010418,61.9153996 C28.7203964,61.9153996 30.0275348,61.5649123 31.2125108,60.8760234 L50.9539658,49.28577 C53.3117014,47.8959064 54.7654348,45.345809 54.7654348,42.5781676 L54.7654348,19.385575 C54.7654348,16.6179337 53.3117014,14.0557505 50.9539658,12.6779727 Z M24.2858988,59.6916179 L4.54444384,48.1013645 C2.61427683,46.9653021 1.41708464,44.8502924 1.41708464,42.5781676 L1.41708464,19.385575 C1.41708464,17.1134503 2.61427683,14.9984405 4.54444384,13.8623782 L24.2858988,2.27212476 C25.2387661,1.71617934 26.3137958,1.42612086 27.4010418,1.42612086 C28.4882877,1.42612086 29.5755337,1.71617934 30.5161847,2.27212476 L50.2576397,13.8623782 C51.8824005,14.817154 52.9818627,16.4729045 53.2872689,18.3341131 C52.6275916,16.9563353 51.161642,16.5695906 49.4391511,17.5727096 L30.7605097,28.9937622 C28.4272065,30.3352827 26.7169319,31.8580897 26.7169319,34.625731 L26.7169319,57.3953216 C26.7169319,59.0631579 27.3888255,60.1387914 28.4394227,60.4530214 C28.0973678,60.5134503 27.7553129,60.5497076 27.4010418,60.5497076 C26.3137958,60.5376218 25.2265498,60.2475634 24.2858988,59.6916179 Z" id="Shape" fill="#263038" fill-rule="nonzero"></path>
                <path d="M45.7864933,44.8140351 L40.8633458,47.7267057 C40.7289671,47.7992203 40.6312371,47.8838207 40.6312371,48.0409357 L40.6312371,49.3099415 C40.6312371,49.4670565 40.7411834,49.5274854 40.8633458,49.4549708 L45.8597908,46.4576998 C45.9941695,46.3851852 46.0063858,46.2401559 46.0063858,46.0830409 L46.0063858,44.9590643 C46.018602,44.8019493 45.9086558,44.7415205 45.7864933,44.8140351 Z" id="Path" fill="#09AB00"></path>
                <path d="M35.3171697,34.1060429 C35.475981,34.0214425 35.6103597,34.1302144 35.6103597,34.3356725 L35.6225759,36.0155945 C36.3311182,35.7376218 36.9541468,35.6651072 37.5160942,35.7859649 C37.6382566,35.8222222 37.6871216,35.9793372 37.6382566,36.1727096 L37.259553,37.6592593 C37.2351205,37.7680312 37.161823,37.8888889 37.0885255,37.9614035 C37.0518768,37.9976608 37.0274443,38.0218324 36.9907956,38.0339181 C36.9419306,38.0580897 36.8930656,38.0701754 36.8442006,38.0580897 C36.5876594,37.9976608 35.9768471,37.8647173 35.0239798,38.3481481 C34.0222476,38.8557505 33.6679764,39.7138402 33.6801927,40.354386 C33.6924089,41.1157895 34.0833288,41.3575049 35.4515485,41.3695906 C37.2717692,41.3937622 38.0658253,42.191423 38.0780415,44.0042885 C38.102474,45.7929825 37.1373905,47.7025341 35.6592247,48.8869396 L35.6958734,50.5547758 C35.6958734,50.7602339 35.5614947,50.9898635 35.4026835,51.0623782 L34.4009512,51.6304094 C34.24214,51.7150097 34.1077613,51.6183236 34.1077613,51.4128655 L34.0955451,49.7692008 C33.2404078,50.1196881 32.3730542,50.2042885 31.8233231,49.9867446 C31.7133769,49.9504873 31.6767282,49.7933723 31.7133769,49.6241715 L32.0798643,48.1134503 C32.1042968,47.9925926 32.1775943,47.8717349 32.263108,47.7992203 C32.2997568,47.7750487 32.3241893,47.7508772 32.360838,47.7267057 C32.4219192,47.7025341 32.4707842,47.6904483 32.5196492,47.7146199 C33.1182453,47.9079922 33.8756526,47.8233918 34.6086274,47.4487329 C35.5370622,46.9773879 36.1600908,46.0467836 36.1478745,45.1040936 C36.1356583,44.2580897 35.6714409,43.9076023 34.5475462,43.8955166 C33.1182453,43.8955166 31.7744581,43.6175439 31.7500257,41.5267057 C31.7378094,39.8105263 32.6418117,38.0218324 34.0711126,36.88577 L34.0588963,35.205848 C34.0588963,35.0003899 34.1810588,34.7707602 34.3520862,34.6861598 L35.3171697,34.1060429 Z" id="Path" fill="#FFFFFF"></path>
            </g>
        </g>
    </g>
</svg>