<?xml version="1.0" encoding="UTF-8"?>
<svg width="84px" height="84px" viewBox="0 0 84 84" version="1.1" xmlns="http://www.w3.org/2000/svg" xmlns:xlink="http://www.w3.org/1999/xlink">
    <title>go</title>
    <g id="go" stroke="none" stroke-width="1" fill="none" fill-rule="evenodd">
        <g id="Go_Logo_Blue" transform="translate(-1.000000, 26.000000)" fill="#00AFDC" fill-rule="nonzero">
            <path d="M6.35897436,9.92820513 C6.19487179,9.92820513 6.15384615,9.84615385 6.23589744,9.72307692 L7.0974359,8.61538462 C7.17948718,8.49230769 7.38461538,8.41025641 7.54871795,8.41025641 L22.1948718,8.41025641 C22.3589744,8.41025641 22.4,8.53333333 22.3179487,8.65641026 L21.6205128,9.72307692 C21.5384615,9.84615385 21.3333333,9.96923077 21.2102564,9.96923077 L6.35897436,9.92820513 Z" id="Path"></path>
            <path d="M0.164102564,13.7025641 C0,13.7025641 -0.041025641,13.6205128 0.041025641,13.4974359 L0.902564103,12.3897436 C0.984615385,12.2666667 1.18974359,12.1846154 1.35384615,12.1846154 L20.0615385,12.1846154 C20.225641,12.1846154 20.3076923,12.3076923 20.2666667,12.4307692 L19.9384615,13.4153846 C19.8974359,13.5794872 19.7333333,13.6615385 19.5692308,13.6615385 L0.164102564,13.7025641 Z" id="Path"></path>
            <path d="M10.0923077,17.4769231 C9.92820513,17.4769231 9.88717949,17.3538462 9.96923077,17.2307692 L10.5435897,16.2051282 C10.625641,16.0820513 10.7897436,15.9589744 10.9538462,15.9589744 L19.1589744,15.9589744 C19.3230769,15.9589744 19.4051282,16.0820513 19.4051282,16.2461538 L19.3230769,17.2307692 C19.3230769,17.3948718 19.1589744,17.5179487 19.0358974,17.5179487 L10.0923077,17.4769231 Z" id="Path"></path>
            <g id="Group" transform="translate(22.153846, 0.000000)">
                <path d="M30.5230769,9.18974359 C27.9384615,9.84615385 26.174359,10.3384615 23.6307692,10.9948718 C23.0153846,11.1589744 22.974359,11.2 22.4410256,10.5846154 C21.825641,9.88717949 21.374359,9.43589744 20.5128205,9.02564103 C17.9282051,7.75384615 15.425641,8.12307692 13.0871795,9.64102564 C10.2974359,11.4461538 8.86153846,14.1128205 8.9025641,17.4358974 C8.94358974,20.7179487 11.2,23.425641 14.4410256,23.8769231 C17.2307692,24.2461538 19.5692308,23.2615385 21.4153846,21.1692308 C21.7846154,20.7179487 22.1128205,20.225641 22.5230769,19.6512821 C21.0461538,19.6512821 19.2,19.6512821 14.6051282,19.6512821 C13.7435897,19.6512821 13.5384615,19.1179487 13.825641,18.4205128 C14.3589744,17.1487179 15.3435897,15.0153846 15.9179487,13.9487179 C16.0410256,13.7025641 16.3282051,13.2923077 16.9435897,13.2923077 C19.0358974,13.2923077 26.7487179,13.2923077 31.8769231,13.2923077 C31.7948718,14.4 31.7948718,15.5076923 31.6307692,16.6153846 C31.1794872,19.5692308 30.0717949,22.2769231 28.2666667,24.6564103 C25.3128205,28.5538462 21.4564103,30.974359 16.574359,31.6307692 C12.5538462,32.1641026 8.82051282,31.3846154 5.53846154,28.9230769 C2.5025641,26.625641 0.779487179,23.5897436 0.328205128,19.8153846 C-0.205128205,15.3435897 1.10769231,11.3230769 3.81538462,7.79487179 C6.72820513,3.97948718 10.5846154,1.55897436 15.3025641,0.697435897 C19.1589744,-1.77635684e-15 22.8512821,0.451282051 26.174359,2.70769231 C28.3487179,4.14358974 29.9076923,6.11282051 30.9333333,8.49230769 C31.1794872,8.86153846 31.0153846,9.06666667 30.5230769,9.18974359 Z" id="Path"></path>
                <path d="M44.1025641,31.8769231 C40.3692308,31.7948718 36.9641026,30.7282051 34.0923077,28.2666667 C31.6717949,26.174359 30.1538462,23.5076923 29.6615385,20.3487179 C28.9230769,15.7128205 30.1948718,11.6102564 32.9846154,7.95897436 C35.9794872,4.02051282 39.5897436,1.96923077 44.4717949,1.10769231 C48.6564103,0.369230769 52.5948718,0.779487179 56.1641026,3.2 C59.4051282,5.41538462 61.4153846,8.41025641 61.9487179,12.3487179 C62.6461538,17.8871795 61.0461538,22.4 57.2307692,26.2564103 C54.5230769,29.0051282 51.2,30.7282051 47.3846154,31.5076923 C46.2769231,31.7128205 45.1692308,31.7538462 44.1025641,31.8769231 Z M53.8666667,15.3025641 C53.825641,14.7692308 53.825641,14.3589744 53.7435897,13.9487179 C53.0051282,9.88717949 49.2717949,7.58974359 45.374359,8.49230769 C41.5589744,9.35384615 39.0974359,11.774359 38.1948718,15.6307692 C37.4564103,18.8307692 39.0153846,22.0717949 41.9692308,23.3846154 C44.225641,24.3692308 46.4820513,24.2461538 48.6564103,23.1384615 C51.8974359,21.4564103 53.6615385,18.8307692 53.8666667,15.3025641 Z" id="Shape"></path>
            </g>
        </g>
    </g>
</svg>