<?xml version="1.0" encoding="UTF-8"?>
<svg width="84px" height="84px" viewBox="0 0 84 84" version="1.1" xmlns="http://www.w3.org/2000/svg" xmlns:xlink="http://www.w3.org/1999/xlink">
    <title>java</title>
    <g id="java" stroke="none" stroke-width="1" fill="none" fill-rule="evenodd">
        <g id="Group" transform="translate(24.000000, 12.000000)">
            <path d="M24.1051494,59.9594358 C19.2089592,56.8680749 19.7868395,47.8462651 11.7952205,52.0611847 C10.4718385,52.7594729 1.23149539,63.815765 0,57.5748834 C2.00786512,35.5889913 3.84846797,23.0509205 2.64568713,0.823498535 C2.64568713,0.161513883 3.53583827,0 4.1772496,0 C19.8360132,9.07033811 35.4649855,61.6649631 24.1051494,59.9594358 Z M2.3833079,50.521987 C-1.04126148,69.6506392 12.7704385,38.5425468 20.1787932,52.3179029 C20.6095115,53.1221383 25.5297501,61.0114987 25.6812194,56.9617974 C28.1147778,39.910599 14.734155,11.5856575 4.87250071,3.42587245 C4.74902813,20.8330682 5.00566445,32.2890701 2.3833079,50.521987 Z M4.6575005,16.7989256 C4.73431193,16.6444501 4.52182423,16.5151649 4.51895278,16.3432786 C4.47588095,13.7068238 3.06850892,4.13268091 5.34916229,3.26613642 C5.42812731,3.23657521 12.5708724,12.0746445 12.6501963,12.1020574 C15.3310588,13.0385416 16.0370778,16.8945003 14.3949643,20.2018304 C12.7532098,23.5087902 9.22670374,25.4425114 6.54584129,24.5056568 C3.86426097,23.5680613 3.01610486,20.1066262 4.6575005,16.7989256 Z M5.57493046,17.1193602 C6.90800359,14.435118 9.76904986,12.8677666 11.945254,13.6279191 C14.1214582,14.3880716 14.8095307,17.1967832 13.4778933,19.8810254 C12.1448202,22.5652675 9.28377392,24.1341008 7.10756973,23.3735778 C4.93136555,22.6134253 4.24293414,19.8043433 5.57493046,17.1193602 Z M4.6575005,16.7989256 C4.73431193,16.6444501 4.52182423,16.5151649 4.51895278,16.3432786 C4.47911134,13.9179773 3.28602166,5.62149809 4.87106498,3.6344328 C4.82117345,10.8351366 4.83517179,17.0215628 4.67903641,23.1001897 C3.58214049,21.554324 3.49671469,19.1379133 4.6575005,16.7989256 Z M4.9769499,3.51514962 C5.08893665,3.40327532 5.2120503,3.31844349 5.34916229,3.26613642 C5.42812731,3.23657521 12.5708724,12.0746445 12.6501963,12.1020574 C14.5449979,12.7640421 15.4538135,14.8859492 15.2438383,17.2401252 C11.9122323,11.2248444 8.25471612,6.26755362 4.9769499,3.51514962 Z" id="Fill-2" fill="#494848"></path>
            <path d="M12.7220523,15.3603803 C14.422875,15.8996991 14.9576352,17.8796462 13.916378,19.7823232 C12.874841,21.6850002 10.6510111,22.7906169 8.95018845,22.25156 C7.24936579,21.7125031 6.71460565,19.7322941 7.75586283,17.8296171 C8.79739984,15.9269401 11.0212297,14.8213234 12.7220523,15.3603803 Z" id="Fill-4" fill="#F03E4E"></path>
            <path d="M7.01085144,19.4269325 C7.22264826,19.070471 7.28762009,18.5031822 7.15597411,18.1606432 C7.02446999,17.8176623 6.74599902,17.8287119 6.53420221,18.1851735 C6.32254725,18.541635 6.25757542,19.1087027 6.38907954,19.4514627 C6.52072552,19.7942227 6.79919648,19.783173 7.01085144,19.4269325" id="Fill-5" fill="#FFFFFE"></path>
            <path d="M20.7692308,21.5420428 C23.3343184,20.2357973 24.6672708,16.4068864 24.209681,13.5318932 C23.7523305,10.6571088 23.0932289,10.797444 22.6241514,9.89758599 C22.6909232,8.65252827 23.3849663,8.0584006 24.6567405,9.0357354 C25.1880425,9.85373123 25.7195838,10.6719359 26.2508857,11.4899317 C26.6929194,12.3125218 27.2184776,12.2580166 27.5267284,11.3264161 C28.3215275,9.865217 28.9327641,8.50634572 30.2638909,7.51334849 C32.6193297,6.51178915 34.0421181,7.8445564 32.9156143,9.2431058 C31.7891105,10.6416552 30.615699,11.6039541 29.9300322,12.6961466 C30.8052445,12.6689984 31.7524937,11.5172887 32.627706,11.4899317 C36.4408747,11.5569668 35.527849,13.9303451 33.1903596,14.1078525 C31.8446339,14.188044 30.5307385,14.4052295 30.1897001,15.5803285 C31.0335608,15.9075686 32.0782154,16.1032444 32.9220761,16.4304844 C35.3316023,17.3288807 34.6605344,19.2384425 31.9647752,18.5634968 C30.0559173,18.0161475 29.3752764,17.9516184 28.2202929,18.2801114 C25.9991156,19.0651118 23.1334355,19.8434295 23.7190643,25.9701493 C23.1250591,24.8792097 22.5310539,23.788479 21.9372881,22.6977483" id="Fill-8" fill="#494848"></path>
            <path d="M1.20344011,36.9046242 C1.10013238,37.3229811 0.87981742,37.6119403 0.626488899,37.6119403 C0.274344287,37.6119403 0,37.1165408 0,36.4315196 C0,36.0402662 2.11029379,28.7253088 2.92486132,26.0245724 C2.97548377,25.8567313 2.97525919,26.0771068 2.92418757,26.6856989 C3.04231772,26.4264663 3.21389838,26.2607847 3.40524226,26.2607847 C3.75738688,26.2607847 3.55312367,26.2926564 3.55312367,26.9776777 C3.55312367,27.2906803 3.65171518,27.8906061 3.55312367,28.1100577 C3.54256831,28.1327898 2.16667241,34.9929473 1.20344011,36.9046242 Z" id="Fill-9" fill="#494848"></path>
            <path d="M1.97131844,34.6807505 C2.08714438,35.0596577 3.39354279,37.059593 3.54925066,38.104076 C3.84666321,40.0991089 2.99095426,41.4339243 2.99095426,41.1579456 C2.99095426,41.1133706 2.99636347,41.0703596 3.00616766,41.0281306 C3.0054915,41.0093622 3.00109652,40.9905938 2.99095426,40.9733894 L2.96999357,41.0800045 C2.22115626,39.7242458 2.19749098,38.1224121 1.17515056,36.8036689 C0.649781178,36.1960409 0.249161669,35.7114503 0.0375263844,35.0005959 C0.0277221939,34.9732252 0.01893223,34.9450726 0.0131849459,34.9166593 C0.00439498195,34.8720842 0,34.833244 0,34.7938824 C0,34.3731567 0.445245479,34.0298507 0.990899393,34.0298507 C1.48651813,34.0298507 1.89964643,34.3137233 1.97131844,34.6807505 Z" id="Fill-11" fill="#494848"></path>
        </g>
    </g>
</svg>