<?xml version="1.0" encoding="UTF-8"?>
<svg width="84px" height="84px" viewBox="0 0 84 84" version="1.1" xmlns="http://www.w3.org/2000/svg" xmlns:xlink="http://www.w3.org/1999/xlink">
    <title>php</title>
    <g id="php" stroke="none" stroke-width="1" fill="none" fill-rule="evenodd">
        <g id="4c69e694f411fe8138a5242020efdc8d" transform="translate(6.000000, 23.000000)" fill="#007BC1">
            <path d="M22.0744666,14.0680762 L18.2956545,14.0680762 L16.7431193,22.1007417 L20.2729399,22.1007417 C20.2729399,22.1007417 24.5717049,22.2111816 24.7694334,16.8953389 C24.9744852,13.8398337 22.0744666,14.0680762 22.0744666,14.0680762 Z" id="Path"></path>
            <path d="M54.8905093,14.0680762 L51.1120311,14.0680762 L49.559633,22.1007417 L53.0891418,22.1007417 C53.0891418,22.1007417 57.3875269,22.2111816 57.5852379,16.8953389 C57.7975943,13.8398337 54.8905093,14.0680762 54.8905093,14.0680762 Z" id="Path"></path>
            <path d="M36.5,0 C16.3430612,0 0,8.39893505 0,18.7522936 C0,29.1056521 16.3430612,37.5045872 36.5,37.5045872 C56.6569388,37.5045872 73,29.1129176 73,18.7522936 C73,8.39893505 56.6569388,0 36.5,0 Z M20.1569388,24.1796331 L16.2685714,24.150571 L15.1735714,29.1347142 L11.0095918,29.1347142 L14.7638776,10.3824206 C14.7638776,10.3824206 20.0973469,10.4478102 23.5983673,10.3824206 C27.0993878,10.3170309 30.5408163,12.7291818 28.9318367,18.1928489 C26.995102,24.7172812 20.1569388,24.1796331 20.1569388,24.1796331 Z M38.8762245,24.1796331 C38.8762245,24.1796331 39.8743878,19.8203242 40.3138776,16.7978701 C40.4926531,15.5554671 41.2822449,13.4412023 39.1965306,13.4412023 C37.4534694,13.4339368 34.8463265,13.4266713 34.8463265,13.4266713 L32.6488776,24.1868986 L28.5295918,24.1868986 L32.3732653,5.34741886 L36.5893878,5.34741886 L35.5316327,10.3824206 L39.8818367,10.3824206 C39.8818367,10.3824206 45.6473469,9.93922418 44.9620408,14.5818881 C44.2767347,19.224552 42.9955102,24.1796331 42.9955102,24.1796331 L38.8762245,24.1796331 Z M61.7371429,18.2001145 C59.8153061,24.7172812 52.9696939,24.1796331 52.9696939,24.1796331 L49.0813265,24.150571 L47.9863265,29.1347142 L43.8223469,29.1347142 L47.5766327,10.3824206 C47.5766327,10.3824206 52.910102,10.4478102 56.4111224,10.3824206 C59.9046939,10.3170309 63.3461224,12.7291818 61.7371429,18.2001145 Z" id="Shape" fill-rule="nonzero"></path>
        </g>
    </g>
</svg>