<?xml version="1.0" encoding="UTF-8"?>
<svg width="172px" height="50px" viewBox="0 0 172 50" version="1.1" xmlns="http://www.w3.org/2000/svg" xmlns:xlink="http://www.w3.org/1999/xlink">
    <title>logo</title>
    <g id="logo" stroke="none" stroke-width="1" fill="none" fill-rule="evenodd">
        <path d="M65.4711914,38 L65.4711914,33.6054688 L51.7260742,33.6054688 L65.0805664,15.0019531 L65.0805664,10.9980469 L45.8178711,10.9980469 L45.8178711,15.3925781 L58.6352539,15.3925781 L44.987793,34.4599609 L44.987793,38 L65.4711914,38 Z M83.1225586,38.4882812 C84.9617513,38.4882812 86.5974935,38.3499349 88.0297852,38.0732422 C89.4620768,37.7965495 90.8780924,37.3245443 92.277832,36.6572266 L92.277832,36.6572266 L92.277832,31.9941406 C90.699056,32.6940104 89.2220052,33.1944987 87.8466797,33.4956055 C86.4713542,33.7967122 84.9861654,33.9472656 83.3911133,33.9472656 C80.9659831,33.9472656 79.0861003,33.2433268 77.7514648,31.8354492 C76.4168294,30.4275716 75.7088216,28.4134115 75.6274414,25.7929688 L75.6274414,25.7929688 L93.6206055,25.7929688 L93.6206055,22.6923828 C93.6206055,18.9000651 92.5870768,15.9215495 90.5200195,13.7568359 C88.4529622,11.5921224 85.637207,10.5097656 82.0727539,10.5097656 C78.2316081,10.5097656 75.2124023,11.7711589 73.0151367,14.2939453 C70.8178711,16.8167318 69.7192383,20.2835286 69.7192383,24.6943359 C69.7192383,28.9912109 70.9033203,32.3644206 73.2714844,34.8139648 C75.6396484,37.2635091 78.9233398,38.4882812 83.1225586,38.4882812 Z M87.980957,21.6425781 L75.7250977,21.6425781 C75.9366862,19.4290365 76.5917969,17.7444661 77.6904297,16.5888672 C78.7890625,15.4332682 80.2498372,14.8554688 82.0727539,14.8554688 C83.8956706,14.8554688 85.3279622,15.4291992 86.3696289,16.5766602 C87.4112956,17.7241211 87.9484049,19.4127604 87.980957,21.6425781 L87.980957,21.6425781 Z M105.876465,50.0117188 L105.876465,38.9521484 C105.876465,38.4638672 105.762533,37.0804036 105.534668,34.8017578 L105.534668,34.8017578 L105.876465,34.8017578 C107.764486,37.2594401 110.41748,38.4882812 113.835449,38.4882812 C117.20459,38.4882812 119.845378,37.2513021 121.757812,34.7773438 C123.670247,32.3033854 124.626465,28.8610026 124.626465,24.4501953 C124.626465,20.039388 123.686523,16.6132812 121.806641,14.171875 C119.926758,11.7304688 117.302246,10.5097656 113.933105,10.5097656 C110.352376,10.5097656 107.666829,11.8769531 105.876465,14.6113281 L105.876465,14.6113281 L105.583496,14.6113281 C105.176595,12.7070312 104.90804,11.5026042 104.777832,10.9980469 L104.777832,10.9980469 L100.13916,10.9980469 L100.13916,50.0117188 L105.876465,50.0117188 Z M112.541504,33.8007812 C110.181478,33.8007812 108.480632,33.0642904 107.438965,31.5913086 C106.397298,30.1183268 105.876465,27.7379557 105.876465,24.4501953 L105.876465,24.4501953 L105.876465,23.5957031 C105.876465,20.6660156 106.401367,18.5338542 107.451172,17.1992188 C108.500977,15.8645833 110.165202,15.1972656 112.443848,15.1972656 C114.510905,15.1972656 116.077474,15.9744466 117.143555,17.5288086 C118.209635,19.0831706 118.742676,21.3740234 118.742676,24.4013672 C118.742676,27.4124349 118.205566,29.7317708 117.131348,31.359375 C116.057129,32.9869792 114.527181,33.8007812 112.541504,33.8007812 Z M137.028809,38 L137.028809,0.01171875 L131.291504,0.01171875 L131.291504,38 L137.028809,38 Z M156.340332,38.4882812 C160.37679,38.4882812 163.526204,37.2513021 165.788574,34.7773438 C168.050944,32.3033854 169.182129,28.8610026 169.182129,24.4501953 C169.182129,20.1858724 168.042806,16.7963867 165.76416,14.2817383 C163.485514,11.7670898 160.393066,10.5097656 156.486816,10.5097656 C152.40153,10.5097656 149.23584,11.7386068 146.989746,14.1962891 C144.743652,16.6539714 143.620605,20.0719401 143.620605,24.4501953 C143.620605,27.2659505 144.141439,29.7399089 145.183105,31.8720703 C146.224772,34.0042318 147.71403,35.639974 149.650879,36.7792969 C151.587728,37.9186198 153.817546,38.4882812 156.340332,38.4882812 Z M156.437988,33.8007812 C151.831868,33.8007812 149.528809,30.6839193 149.528809,24.4501953 C149.528809,21.4716797 150.069987,19.1848958 151.152344,17.5898438 C152.234701,15.9947917 153.980306,15.1972656 156.38916,15.1972656 C160.979004,15.1972656 163.273926,18.2815755 163.273926,24.4501953 C163.273926,30.6839193 160.99528,33.8007812 156.437988,33.8007812 Z" id="zeplo" fill="#3A3A3A" fill-rule="nonzero"></path>
        <path d="M20.0901736,4.37215596 C20.0901736,4.08388072 19.987228,3.80529238 19.783733,3.53636614 C19.6400859,3.32802954 19.4270177,3.17298951 19.1397173,3.07124604 C18.8548256,2.96707774 18.5675375,2.97677084 18.2826641,3.10273777 C17.9762235,3.20448124 17.7511796,3.39101301 17.6075141,3.65991444 L1.24419642,28.4346918 C1.12209821,28.6430284 1.04070145,28.8804319 1,29.1493024 C1,29.396399 1.05027465,29.6241156 1.15322032,29.8300522 C1.27531853,30.0577688 1.4476914,30.2443005 1.67273528,30.3896475 C1.89777916,30.4913909 2.13239625,30.5446875 2.3789584,30.5446875 L11.9074239,30.5446875 L11.9074239,45.7386109 C11.9074239,46.0268861 12.0007902,46.3054745 12.1851326,46.5744007 C12.3479323,46.8021173 12.5729701,46.9571574 12.8578924,47.0395208 C13.1451805,47.1436891 13.4300723,47.1436891 13.7173359,47.0395208 C14.0022276,46.9159725 14.2272715,46.7391277 14.3900957,46.5138359 L30.7534133,21.7074303 C30.8779018,21.4797137 30.9593047,21.2301985 31,20.9613157 C31,20.7360239 30.9281764,20.5083073 30.7845355,20.2805659 C30.7031387,20.0528493 30.5499184,19.8760106 30.3248745,19.7524623 C30.0998306,19.628914 29.8556403,19.5659305 29.5899072,19.5659305 L20.0902472,19.5659305 L20.0902472,4.37200712 L20.0901736,4.37215596 Z M16.9176987,20.4438415 C16.9176987,20.8190691 17.0392695,21.1428022 17.2824111,21.4150283 C17.5684583,21.7093226 17.8926451,21.8564666 18.2597619,21.8564666 L26.5882353,21.8564666 L14.2023161,40.9411765 L14.2023161,28.7914526 C14.2023161,28.4162251 14.0688274,28.0924919 13.8042361,27.8202658 C13.5205749,27.5259715 13.2035339,27.3788275 12.8578852,27.3788275 L4.52941176,27.3788275 L16.9177719,8.29411765 L16.9177719,20.4438415 L16.9176987,20.4438415 Z M17.2824843,21.4150283 C17.0393427,21.1428085 16.9177719,20.8190816 16.9177719,20.4438415 L16.9177719,8.29411765 L4.52941176,27.3788275 L12.8578852,27.3788275 C13.2035278,27.3788275 13.5205383,27.5259715 13.8042361,27.8202658 C14.0688274,28.0924857 14.2023161,28.4162125 14.2023161,28.7914526 L14.2023161,40.9411765 L26.5882353,21.8564666 L18.2597619,21.8564666 C17.8926695,21.8564666 17.5684888,21.7093226 17.2824111,21.4150283 L17.2824843,21.4150283 Z" id="Fill-1" fill="#3A3A3A"></path>
    </g>
</svg>